<svg width="293" height="192" viewBox="0 0 293 192" fill="none" xmlns="http://www.w3.org/2000/svg">
<g clip-path="url(#clip0_3296_3585)">
<path d="M14.1762 0.42334L13.1918 1.4078L0.492188 14.1074" stroke="#3DCFB6" stroke-width="1.01" stroke-miterlimit="10"/>
<path d="M1.4865 0.42334L0.502032 1.4078L0.492188 1.41765" stroke="#3DCFB6" stroke-width="1.01" stroke-miterlimit="10"/>
<path d="M291.894 1.65387L102.138 191.409" stroke="#3DCFB6" stroke-width="1.01" stroke-miterlimit="10"/>
<path d="M280.444 0.42334L279.46 1.4078L89.458 191.409" stroke="#3DCFB6" stroke-width="1.21" stroke-miterlimit="10"/>
<path d="M267.764 0.42334L266.78 1.4078L76.7783 191.409" stroke="#3DCFB6" stroke-width="1.01" stroke-miterlimit="10"/>
<path d="M255.084 0.42334L254.1 1.4078L64.3936 191.114" stroke="#3DCFB6" stroke-width="1.01" stroke-miterlimit="10"/>
<path d="M242.404 0.42334L241.42 1.4078L51.4185 191.409" stroke="#3DCFB6" stroke-width="1.01" stroke-miterlimit="10"/>
<path d="M229.725 0.42334L228.74 1.4078L38.7388 191.409" stroke="#3DCFB6" stroke-width="1.01" stroke-miterlimit="10"/>
<path d="M217.045 0.42334L216.06 1.4078L25.8125 191.655" stroke="#3DCFB6" stroke-width="1.01" stroke-miterlimit="10"/>
<path d="M204.375 0.42334L203.39 1.4078L13.3887 191.409" stroke="#3DCFB6" stroke-width="1.01" stroke-miterlimit="10"/>
<path d="M291.893 166.483L266.967 191.409" stroke="#3DCFB6" stroke-width="1.01" stroke-miterlimit="10"/>
<path d="M291.894 153.803L254.287 191.409" stroke="#3DCFB6" stroke-width="1.01" stroke-miterlimit="10"/>
<path d="M291.894 179.163L279.647 191.409" stroke="#3DCFB6" stroke-width="1.01" stroke-miterlimit="10"/>
<path d="M291.893 141.123L241.607 191.409" stroke="#3DCFB6" stroke-width="1.01" stroke-miterlimit="10"/>
<path d="M291.894 128.443L228.927 191.409" stroke="#3DCFB6" stroke-width="1.01" stroke-miterlimit="10"/>
<path d="M291.894 115.773L216.257 191.409" stroke="#3DCFB6" stroke-width="1.01" stroke-miterlimit="10"/>
<path d="M291.893 103.083L203.577 191.409" stroke="#3DCFB6" stroke-width="1.01" stroke-miterlimit="10"/>
<path d="M291.894 90.4033L190.897 191.409" stroke="#3DCFB6" stroke-width="1.01" stroke-miterlimit="10"/>
<path d="M291.893 77.7333L178.217 191.409" stroke="#3DCFB6" stroke-width="1.01" stroke-miterlimit="10"/>
<path d="M291.894 65.0534L165.538 191.409" stroke="#3DCFB6" stroke-width="1.01" stroke-miterlimit="10"/>
<path d="M291.894 52.3735L152.858 191.409" stroke="#3DCFB6" stroke-width="1.01" stroke-miterlimit="10"/>
<path d="M291.893 39.6936L140.178 191.409" stroke="#3DCFB6" stroke-width="1.01" stroke-miterlimit="10"/>
<path d="M291.894 27.0137L127.498 191.409" stroke="#3DCFB6" stroke-width="1.01" stroke-miterlimit="10"/>
<path d="M291.893 14.3338L114.818 191.409" stroke="#3DCFB6" stroke-width="1.01" stroke-miterlimit="10"/>
<path d="M191.695 0.42334L0.984375 191.114" stroke="#3DCFB6" stroke-width="1.01" stroke-miterlimit="10"/>
<path d="M179.005 0.42334L178.021 1.4078L0.492188 178.946" stroke="#3DCFB6" stroke-width="1.01" stroke-miterlimit="10"/>
<path d="M166.335 0.42334L165.351 1.4078L0.492188 166.266" stroke="#3DCFB6" stroke-width="1.01" stroke-miterlimit="10"/>
<path d="M153.655 0.42334L152.671 1.4078L0.492188 153.586" stroke="#3DCFB6" stroke-width="1.01" stroke-miterlimit="10"/>
<path d="M140.975 0.42334L139.991 1.4078L0.492188 140.897" stroke="#3DCFB6" stroke-width="1.01" stroke-miterlimit="10"/>
<path d="M128.295 0.42334L127.311 1.4078L0.492188 128.226" stroke="#3DCFB6" stroke-width="1.01" stroke-miterlimit="10"/>
<path d="M115.615 0.42334L114.631 1.4078L0.492188 115.547" stroke="#3DCFB6" stroke-width="1.01" stroke-miterlimit="10"/>
<path d="M102.936 0.42334L101.951 1.4078L0.492188 102.867" stroke="#3DCFB6" stroke-width="1.01" stroke-miterlimit="10"/>
<path d="M90.2458 0.42334L89.2613 1.4078L0.492188 90.1769" stroke="#3DCFB6" stroke-width="1.01" stroke-miterlimit="10"/>
<path d="M77.5757 0.42334L76.5913 1.4078L0.492188 77.5069" stroke="#3DCFB6" stroke-width="1.01" stroke-miterlimit="10"/>
<path d="M64.8958 0.42334L63.9114 1.4078L0.492188 64.827" stroke="#3DCFB6" stroke-width="1.01" stroke-miterlimit="10"/>
<path d="M52.2061 0.42334L51.2216 1.4078L0.492188 52.1372" stroke="#3DCFB6" stroke-width="1.01" stroke-miterlimit="10"/>
<path d="M39.536 0.42334L38.5516 1.4078L0.492188 39.4672" stroke="#3DCFB6" stroke-width="1.01" stroke-miterlimit="10"/>
<path d="M26.8561 0.42334L25.8717 1.4078L0.492188 26.7873" stroke="#3DCFB6" stroke-width="1.01" stroke-miterlimit="10"/>
</g>
<defs>
<clipPath id="clip0_3296_3585">
<rect width="292.238" height="192" rx="16" fill="white"/>
</clipPath>
</defs>
</svg>
