<svg width="20" height="20" viewBox="0 0 20 20" fill="none" xmlns="http://www.w3.org/2000/svg">
<mask id="mask0_3296_4205" style="mask-type:alpha" maskUnits="userSpaceOnUse" x="0" y="0" width="20" height="20">
<rect width="20" height="20" fill="#3DCFB6"/>
</mask>
<g mask="url(#mask0_3296_4205)">
<path d="M14.1954 4.85729L5.91812 13.1267C5.80271 13.2419 5.67854 13.2948 5.54563 13.2852C5.41257 13.2756 5.28833 13.2131 5.17292 13.0977C5.05764 12.9823 5 12.856 5 12.7188C5 12.5815 5.05764 12.4552 5.17292 12.3398L13.4215 4.08333H6.23708C6.08361 4.08333 5.95493 4.03181 5.85104 3.92875C5.74729 3.82569 5.69542 3.69806 5.69542 3.54583C5.69542 3.39347 5.74729 3.26444 5.85104 3.15875C5.95493 3.05292 6.08361 3 6.23708 3H14.6087C14.7986 3 14.9577 3.06417 15.086 3.1925C15.2145 3.32097 15.2788 3.48007 15.2788 3.66979V12.0417C15.2788 12.1951 15.2272 12.3237 15.1242 12.4275C15.0211 12.5314 14.8935 12.5833 14.7412 12.5833C14.5889 12.5833 14.4598 12.5314 14.354 12.4275C14.2483 12.3237 14.1954 12.1951 14.1954 12.0417V4.85729Z" fill="#3DCFB6"/>
</g>
</svg>
