<svg width="20" height="20" viewBox="0 0 20 20" fill="none" xmlns="http://www.w3.org/2000/svg">
<mask id="mask0_3296_4199" style="mask-type:alpha" maskUnits="userSpaceOnUse" x="0" y="0" width="20" height="20">
<rect width="20" height="20" fill="#3DCFB6"/>
</mask>
<g mask="url(#mask0_3296_4199)">
<path d="M9.19835 6.85851L0.921055 15.1279C0.805638 15.2432 0.681471 15.296 0.548555 15.2864C0.415499 15.2768 0.291263 15.2143 0.175846 15.0989C0.0605686 14.9835 0.00292969 14.8572 0.00292969 14.72C0.00292969 14.5827 0.0605686 14.4564 0.175846 14.341L8.42439 6.08455H1.24001C1.08654 6.08455 0.95786 6.03303 0.853971 5.92997C0.750221 5.82692 0.698346 5.69928 0.698346 5.54705C0.698346 5.39469 0.750221 5.26567 0.853971 5.15997C0.95786 5.05414 1.08654 5.00122 1.24001 5.00122H9.61168C9.80154 5.00122 9.96064 5.06539 10.089 5.19372C10.2174 5.32219 10.2817 5.48129 10.2817 5.67101V14.0429C10.2817 14.1964 10.2302 14.325 10.1271 14.4287C10.024 14.5326 9.8964 14.5846 9.74418 14.5846C9.59182 14.5846 9.46272 14.5326 9.35689 14.4287C9.25119 14.325 9.19835 14.1964 9.19835 14.0429V6.85851Z" fill="#3DCFB6"/>
</g>
</svg>
