<svg width="49" height="48" viewBox="0 0 49 48" fill="none" xmlns="http://www.w3.org/2000/svg">
<mask id="mask0_3296_5458" style="mask-type:alpha" maskUnits="userSpaceOnUse" x="0" y="0" width="49" height="48">
<rect x="0.171875" width="48" height="48" fill="#D9D9D9"/>
</mask>
<g mask="url(#mask0_3296_5458)">
<path d="M8.94088 34.5384C8.72321 34.5384 8.54054 34.4636 8.39287 34.3139C8.24554 34.1646 8.17188 33.9794 8.17188 33.7584C8.17188 33.5374 8.24554 33.3558 8.39287 33.2134C8.54054 33.0711 8.72321 32.9999 8.94088 32.9999H39.4029C39.6205 32.9999 39.8032 33.0748 39.9509 33.2244C40.0982 33.3738 40.1719 33.5589 40.1719 33.7799C40.1719 34.0009 40.0982 34.1826 39.9509 34.3249C39.8032 34.4673 39.6205 34.5384 39.4029 34.5384H8.94088ZM8.94088 24.7689C8.72321 24.7689 8.54054 24.6943 8.39287 24.5449C8.24554 24.3953 8.17188 24.2099 8.17188 23.9889C8.17188 23.7679 8.24554 23.5863 8.39287 23.4439C8.54054 23.3019 8.72321 23.2309 8.94088 23.2309H39.4029C39.6205 23.2309 39.8032 23.3056 39.9509 23.4549C40.0982 23.6046 40.1719 23.7899 40.1719 24.0109C40.1719 24.2319 40.0982 24.4136 39.9509 24.5559C39.8032 24.6979 39.6205 24.7689 39.4029 24.7689H8.94088ZM8.94088 14.9999C8.72321 14.9999 8.54054 14.9251 8.39287 14.7754C8.24554 14.6261 8.17188 14.4409 8.17188 14.2199C8.17188 13.9989 8.24554 13.8173 8.39287 13.6749C8.54054 13.5326 8.72321 13.4614 8.94088 13.4614H39.4029C39.6205 13.4614 39.8032 13.5363 39.9509 13.6859C40.0982 13.8353 40.1719 14.0204 40.1719 14.2414C40.1719 14.4624 40.0982 14.6441 39.9509 14.7864C39.8032 14.9288 39.6205 14.9999 39.4029 14.9999H8.94088Z" fill="white"/>
</g>
</svg>
