<svg width="33" height="32" viewBox="0 0 33 32" fill="none" xmlns="http://www.w3.org/2000/svg">
<mask id="mask0_3296_3887" style="mask-type:alpha" maskUnits="userSpaceOnUse" x="0" y="0" width="33" height="32">
<rect x="0.174316" width="32" height="32" fill="#D9D9D9"/>
</mask>
<g mask="url(#mask0_3296_3887)">
<path d="M14.7491 17.3559L12.4825 15.0336C12.2678 14.804 12.003 14.6893 11.6881 14.6893C11.3732 14.6893 11.0973 14.8004 10.8605 15.0226C10.6307 15.2521 10.5158 15.5261 10.5158 15.8446C10.5158 16.1633 10.6307 16.4374 10.8605 16.6669L13.9715 19.7559C14.1937 19.9781 14.4529 20.0893 14.7491 20.0893C15.0456 20.0893 15.3049 19.9781 15.5271 19.7559L21.4825 13.8226C21.7047 13.6004 21.814 13.3337 21.8105 13.0226C21.8067 12.7115 21.69 12.4448 21.4605 12.2226C21.2382 12.015 20.9733 11.9131 20.6658 11.9169C20.3585 11.9207 20.1011 12.0263 19.8938 12.2336L14.7491 17.3559ZM11.1715 29.1336L9.14912 25.6893L5.17145 24.8669C4.89745 24.8151 4.67157 24.6688 4.49379 24.4279C4.31601 24.1873 4.24934 23.9299 4.29379 23.6559L4.72712 19.7336L2.13812 16.7336C1.94545 16.5336 1.84912 16.2891 1.84912 16.0003C1.84912 15.7114 1.94545 15.4669 2.13812 15.2669L4.72712 12.2893L4.29379 8.36692C4.24934 8.09292 4.31601 7.83548 4.49379 7.59459C4.67157 7.35392 4.89745 7.2077 5.17145 7.15592L9.14912 6.33359L11.1715 2.86692C11.3197 2.62248 11.5271 2.45392 11.7938 2.36126C12.0605 2.26881 12.3271 2.28181 12.5938 2.40026L16.1715 4.02259L19.7491 2.40026C20.0158 2.28181 20.2825 2.26514 20.5491 2.35026C20.8158 2.43537 21.0232 2.60014 21.1715 2.84459L23.2158 6.33359L27.1715 7.15592C27.4455 7.2077 27.6713 7.35392 27.8491 7.59459C28.0269 7.83548 28.0936 8.09292 28.0491 8.36692L27.6158 12.2893L30.2048 15.2669C30.3975 15.4669 30.4938 15.7114 30.4938 16.0003C30.4938 16.2891 30.3975 16.5336 30.2048 16.7336L27.6158 19.7336L28.0491 23.6559C28.0936 23.9299 28.0269 24.1873 27.8491 24.4279C27.6713 24.6688 27.4455 24.8151 27.1715 24.8669L23.2158 25.6893L21.1715 29.1559C21.0232 29.4004 20.8158 29.5651 20.5491 29.6503C20.2825 29.7354 20.0158 29.7187 19.7491 29.6003L16.1715 27.9779L12.5938 29.6003C12.3271 29.7187 12.0605 29.7317 11.7938 29.6393C11.5271 29.5466 11.3197 29.378 11.1715 29.1336Z" fill="#3DCFB6"/>
</g>
</svg>
