<svg width="9" height="8" viewBox="0 0 9 8" fill="none" xmlns="http://www.w3.org/2000/svg">
<mask id="mask0_3296_4139" style="mask-type:alpha" maskUnits="userSpaceOnUse" x="0" y="0" width="9" height="8">
<rect x="0.140625" width="8" height="8" fill="#D9D9D9"/>
</mask>
<g mask="url(#mask0_3296_4139)">
<path d="M4.13202 7.19687C3.69158 7.19687 3.27691 7.11354 2.88802 6.94687C2.49913 6.78021 2.15885 6.55104 1.86719 6.25937C1.57552 5.96771 1.34635 5.62754 1.17969 5.23887C1.01302 4.85021 0.929688 4.43493 0.929688 3.99304C0.929688 3.55115 1.01302 3.13715 1.17969 2.75104C1.34635 2.36493 1.57552 2.02604 1.86719 1.73437C2.15885 1.44271 2.49902 1.21354 2.88769 1.04687C3.27635 0.880208 3.69163 0.796875 4.13352 0.796875C4.57541 0.796875 4.98941 0.880208 5.37552 1.04687C5.76163 1.21354 6.10052 1.44271 6.39219 1.73437C6.68385 2.02604 6.91302 2.36554 7.07969 2.75287C7.24635 3.14026 7.32969 3.55415 7.32969 3.99454C7.32969 4.43499 7.24635 4.84965 7.07969 5.23854C6.91302 5.62743 6.68385 5.96771 6.39219 6.25937C6.10052 6.55104 5.76102 6.78021 5.37369 6.94687C4.9863 7.11354 4.57241 7.19687 4.13202 7.19687ZM4.12969 6.59687C4.85191 6.59687 5.4658 6.3441 5.97135 5.83854C6.47691 5.33299 6.72969 4.7191 6.72969 3.99687C6.72969 3.27465 6.47691 2.66076 5.97135 2.15521C5.4658 1.64965 4.85191 1.39687 4.12969 1.39687C3.40746 1.39687 2.79358 1.64965 2.28802 2.15521C1.78247 2.66076 1.52969 3.27465 1.52969 3.99687C1.52969 4.7191 1.78247 5.33299 2.28802 5.83854C2.79358 6.3441 3.40746 6.59687 4.12969 6.59687ZM4.12969 6.59687C3.40746 6.59687 2.79358 6.3441 2.28802 5.83854C1.78247 5.33299 1.52969 4.7191 1.52969 3.99687C1.52969 3.27465 1.78247 2.66076 2.28802 2.15521C2.79358 1.64965 3.40746 1.39687 4.12969 1.39687C4.85191 1.39687 5.4658 1.64965 5.97135 2.15521C6.47691 2.66076 6.72969 3.27465 6.72969 3.99687C6.72969 4.7191 6.47691 5.33299 5.97135 5.83854C5.4658 6.3441 4.85191 6.59687 4.12969 6.59687Z" fill="#6AD7BF"/>
</g>
</svg>
