<svg width="40" height="54" viewBox="0 0 40 54" fill="none" xmlns="http://www.w3.org/2000/svg">
<path fill-rule="evenodd" clip-rule="evenodd" d="M18.064 4H22.06L30.124 28.786H26.848L25 27H14.5L13.078 28.786H10L18.064 4ZM14.9821 28L13.5601 29.786H8.62306L17.3378 3H22.7863L31.5009 29.786H26.4437L24.5957 28H14.9821ZM23.5 25.5L19.99 6.628L15.5 25.5H23.5ZM16.7658 24.5H22.2969L19.8701 11.4523L16.7658 24.5Z" fill="#3DCFB6"/>
<path fill-rule="evenodd" clip-rule="evenodd" d="M26.8603 30L19.6846 47.2L14.9938 35.6L13.0161 30.4L10 30.56L17.6707 50H21.6986L30 30.4L26.8603 30ZM15.9248 35.2348L13.6915 29.3628L8.55997 29.635L16.9902 51H22.361L31.4355 29.5748L26.2308 28.9117L19.6991 44.5682L15.9248 35.2348Z" fill="#3DCFB6"/>
</svg>
