<svg width="114" height="54" viewBox="0 0 114 54" fill="none" xmlns="http://www.w3.org/2000/svg">
<path fill-rule="evenodd" clip-rule="evenodd" d="M13.504 1H17.5L25.564 25.786H22.288L20.44 24H9.94003L8.51803 25.786H5.44003L13.504 1ZM10.4221 25L9.00008 26.786H4.06309L12.7778 0H18.2263L26.941 26.786H21.8838L20.0358 25H10.4221ZM18.94 22.5L15.43 3.628L10.94 22.5H18.94ZM12.2059 21.5H17.7369L15.3101 8.4523L12.2059 21.5Z" fill="#3DCFB6"/>
<path fill-rule="evenodd" clip-rule="evenodd" d="M22.3003 27L15.1247 44.2L10.4339 32.6L8.4561 27.4L5.44003 27.56L13.1107 47H17.1386L25.44 27.4L22.3003 27ZM11.3648 32.2348L9.13148 26.3628L4 26.635L12.4303 48H17.8011L26.8755 26.5748L21.6708 25.9117L15.1391 41.5682L11.3648 32.2348Z" fill="#3DCFB6"/>
<path fill-rule="evenodd" clip-rule="evenodd" d="M75.7111 20.396C75.6569 20.0862 75.6225 19.7529 75.6079 19.396H84.1039C84.1199 19.252 84.1319 19.088 84.1399 18.904C84.1479 18.712 84.1519 18.508 84.1519 18.292C84.1519 17.012 83.9439 15.912 83.5279 14.992C83.1199 14.064 82.5319 13.352 81.7639 12.856C80.9959 12.352 80.0799 12.1 79.0159 12.1C77.8959 12.1 76.9239 12.384 76.0999 12.952C75.2759 13.52 74.6359 14.3 74.1799 15.292C73.7239 16.284 73.4959 17.42 73.4959 18.7C73.4959 20.004 73.7199 21.152 74.1679 22.144C74.6239 23.128 75.2839 23.896 76.1479 24.448C77.0119 25 78.0559 25.276 79.2799 25.276C80.0719 25.276 80.8439 25.144 81.5959 24.88C82.0208 24.7324 82.4194 24.5536 82.7918 24.3435C82.9076 24.2781 83.0209 24.2097 83.1317 24.1383C83.3018 24.0287 83.4658 23.9119 83.6239 23.788L82.6759 22.456C82.1239 22.832 81.5839 23.116 81.0559 23.308C80.5359 23.5 79.9519 23.596 79.3039 23.596C78.6559 23.596 78.0559 23.452 77.5039 23.164C76.9519 22.868 76.5079 22.412 76.1719 21.796C75.9588 21.4002 75.8052 20.9335 75.7111 20.396ZM76.7294 20.396C76.8076 20.7667 76.918 21.0717 77.0511 21.3196C77.3042 21.7826 77.6138 22.087 77.9716 22.2801C78.3735 22.4888 78.8123 22.596 79.3039 22.596C79.8533 22.596 80.3174 22.5147 80.7095 22.3699L80.7141 22.3682C81.1509 22.2094 81.6172 21.9672 82.1129 21.6295L82.9226 21.078L84.9923 23.9861L84.2408 24.5751C83.5564 25.1114 82.782 25.5264 81.9256 25.8241C81.0683 26.1249 80.1849 26.276 79.2799 26.276C77.9025 26.276 76.6632 25.9639 75.6095 25.2907C74.5753 24.63 73.7919 23.711 73.2606 22.5645L73.2565 22.5556C72.7397 21.4112 72.4959 20.1183 72.4959 18.7C72.4959 17.3005 72.7456 16.018 73.2713 14.8743C73.7954 13.7342 74.5469 12.8079 75.5324 12.1287C76.5428 11.4321 77.7183 11.1 79.0159 11.1C80.2419 11.1 81.3546 11.3922 82.3095 12.0179C83.2566 12.6305 83.9639 13.5012 84.4412 14.5848C84.9277 15.6629 85.1519 16.9087 85.1519 18.292C85.1519 18.5202 85.1477 18.7382 85.139 18.9456L85.139 18.9474C85.1302 19.1482 85.1168 19.3352 85.0978 19.5064L84.9989 20.396H76.7294ZM76.6879 14.752C77.3199 14.088 78.1039 13.756 79.0399 13.756C79.9919 13.756 80.7519 14.1 81.3199 14.788C81.738 15.2886 82.0088 15.9713 82.1321 16.836C82.1763 17.1459 82.2016 17.4793 82.2079 17.836H75.6199C75.6425 17.4787 75.6827 17.1454 75.7406 16.836C75.9083 15.9402 76.2241 15.2456 76.6879 14.752ZM77.4144 15.4392C77.1425 15.7296 76.9081 16.176 76.7611 16.836H81.1202C81.0088 16.1789 80.8022 15.7281 80.5524 15.4291L80.5487 15.4247C80.1848 14.9838 79.7164 14.756 79.0399 14.756C78.3723 14.756 77.8527 14.9797 77.4144 15.4392Z" fill="white"/>
<path fill-rule="evenodd" clip-rule="evenodd" d="M59.7533 23.452V25H66.3053V23.452H63.7373V18.1C64.1533 16.708 64.7093 15.668 65.4053 14.98C65.8774 14.5133 66.412 14.2049 67.0093 14.0548C67.2925 13.9836 67.5899 13.948 67.9013 13.948C67.9378 13.948 67.9738 13.9483 68.0093 13.949V16.636H69.6653L69.9533 12.364C69.6653 12.284 69.3813 12.22 69.1013 12.172C69.0591 12.1633 69.0159 12.1553 68.9718 12.148C68.7445 12.1101 68.4917 12.0902 68.2133 12.0882C68.1974 12.0881 68.1814 12.088 68.1653 12.088C67.8355 12.088 67.5244 12.1116 67.2318 12.1588C66.5095 12.2753 65.9007 12.5357 65.4053 12.94C65.0658 13.217 64.7511 13.5502 64.4611 13.9395C64.1566 14.3484 63.8793 14.8192 63.6293 15.352L63.2573 12.364H59.7533V13.912H61.7213V23.452H59.7533ZM60.7213 14.912H58.7533V11.364H64.1405L64.2944 12.6006C64.4477 12.4459 64.6071 12.3006 64.773 12.1652C65.6916 11.4156 66.8551 11.088 68.1653 11.088C68.5616 11.088 68.9376 11.1188 69.2861 11.1891C69.5513 11.2351 69.818 11.2935 70.086 11.364H71.023L71.0058 11.6185L71.2286 11.6804L70.9426 12.5558L70.6001 17.636H67.0093V15.1003C66.6831 15.2218 66.3855 15.4172 66.1083 15.6912C65.5945 16.199 65.1198 17.022 64.7373 18.2492V22.452H67.3053V26H58.7533V22.452H60.7213V14.912Z" fill="white"/>
<path fill-rule="evenodd" clip-rule="evenodd" d="M51.8027 5.89122L55.8187 6.39322V26H52.1632L52.1011 25.4607C51.9663 25.547 51.8275 25.6265 51.6846 25.699C50.9334 26.084 50.1254 26.276 49.2747 26.276C48.0062 26.276 46.8727 25.9537 45.9499 25.2383C45.0626 24.5504 44.4321 23.6109 44.0347 22.474L44.0338 22.4716C43.6457 21.3523 43.4627 20.0896 43.4627 18.7C43.4627 17.3335 43.6745 16.0779 44.1202 14.9497C44.5677 13.8086 45.2314 12.8674 46.1311 12.1728C47.0688 11.4471 48.182 11.1 49.4187 11.1C50.2616 11.1 51.0481 11.2481 51.7539 11.5743C51.7702 11.5816 51.7864 11.589 51.8027 11.5966V5.89122ZM52.8027 13.588C52.5016 13.2415 52.1683 12.9555 51.8027 12.73C51.6534 12.6379 51.4987 12.5559 51.3387 12.484C50.7867 12.228 50.1467 12.1 49.4187 12.1C48.3787 12.1 47.4867 12.388 46.7427 12.964C46.0067 13.532 45.4427 14.316 45.0507 15.316C44.6587 16.308 44.4627 17.436 44.4627 18.7C44.4627 20.004 44.6347 21.152 44.9787 22.144C45.3227 23.128 45.8507 23.896 46.5627 24.448C47.2747 25 48.1787 25.276 49.2747 25.276C49.9707 25.276 50.6227 25.12 51.2307 24.808C51.4897 24.6768 51.7361 24.5137 51.9696 24.3188C52.2915 24.0503 52.5892 23.7214 52.8627 23.332L53.0547 25H54.8187V7.276L52.8027 7.024V13.588ZM51.5307 23.032C52.0427 22.624 52.4667 22.164 52.8027 21.652V15.34C52.4587 14.828 52.0427 14.432 51.5547 14.152C51.0667 13.864 50.5307 13.72 49.9467 13.72C48.8907 13.72 48.0787 14.132 47.5107 14.956C46.9427 15.78 46.6587 17.028 46.6587 18.7C46.6587 19.788 46.7747 20.7 47.0067 21.436C47.2387 22.172 47.5787 22.724 48.0267 23.092C48.4827 23.46 49.0387 23.644 49.6947 23.644C50.4147 23.644 51.0267 23.44 51.5307 23.032ZM51.8027 15.6663C51.578 15.387 51.3289 15.1754 51.057 15.0194L51.0464 15.0133C50.7172 14.819 50.3576 14.72 49.9467 14.72C49.198 14.72 48.7035 14.9876 48.334 15.5235C47.9351 16.1023 47.6587 17.1083 47.6587 18.7C47.6587 19.7243 47.7688 20.5274 47.9604 21.1354C48.1522 21.7437 48.4032 22.1059 48.6581 22.3166C48.9144 22.5222 49.2403 22.644 49.6947 22.644C50.2125 22.644 50.5953 22.5026 50.9015 22.2548L50.9074 22.2499C51.2599 21.969 51.5569 21.6645 51.8027 21.3368V15.6663Z" fill="white"/>
<path fill-rule="evenodd" clip-rule="evenodd" d="M30.852 25H32.868V15.796C33.092 15.468 33.372 15.144 33.708 14.824C34.052 14.496 34.44 14.224 34.872 14.008C35.312 13.792 35.78 13.684 36.276 13.684C36.916 13.684 37.388 13.808 37.692 14.056C37.996 14.296 38.196 14.684 38.292 15.22C38.388 15.748 38.436 16.444 38.436 17.308V25H40.452V15.82C40.452 14.652 40.168 13.74 39.6 13.084C39.04 12.428 38.14 12.1 36.9 12.1C36.172 12.1 35.42 12.276 34.644 12.628C34.2837 12.7894 33.9515 12.9843 33.6475 13.2126C33.3036 13.4709 32.9958 13.772 32.724 14.116L32.568 12.364H30.852V25ZM33.5463 12.0758L33.4829 11.364H29.852V26H33.868V16.1236C34.0162 15.9362 34.1918 15.7442 34.3977 15.5481C34.6676 15.2908 34.9728 15.0761 35.3159 14.9041C35.6161 14.7573 35.9321 14.684 36.276 14.684C36.8206 14.684 37.0166 14.7955 37.0599 14.8309L37.0661 14.8359L37.0724 14.8409C37.119 14.8777 37.2374 15.0037 37.3077 15.3963L37.3082 15.3989C37.389 15.8434 37.436 16.4725 37.436 17.308V26H41.452V15.82C41.452 14.4968 41.1294 13.3243 40.3584 12.4321C39.5368 11.4716 38.2994 11.1 36.9 11.1C36.008 11.1 35.1161 11.3161 34.233 11.7164C33.9942 11.8234 33.7653 11.9433 33.5463 12.0758Z" fill="white"/>
<path fill-rule="evenodd" clip-rule="evenodd" d="M104.393 45.068C103.833 45.428 103.069 45.608 102.101 45.608C101.357 45.608 100.661 45.484 100.013 45.236C99.3732 44.98 98.8052 44.648 98.3092 44.24L97.1574 45.5717C97.162 45.5757 97.1664 45.58 97.171 45.584C97.4112 45.791 97.6761 45.985 97.9658 46.1657C98.3293 46.3925 98.7317 46.5986 99.1731 46.784C99.9811 47.112 100.957 47.276 102.101 47.276C103.005 47.276 103.861 47.152 104.669 46.904C105.485 46.648 106.149 46.244 106.661 45.692C107.173 45.132 107.429 44.404 107.429 43.508C107.429 42.724 107.257 42.084 106.913 41.588C106.569 41.092 106.089 40.692 105.473 40.388C104.865 40.084 104.149 39.824 103.325 39.608C102.469 39.376 101.797 39.164 101.309 38.972C100.821 38.772 100.473 38.552 100.265 38.312C100.065 38.064 99.9651 37.756 99.9651 37.388C99.9651 36.9 100.173 36.504 100.589 36.2C101.005 35.888 101.709 35.732 102.701 35.732C103.517 35.732 104.213 35.84 104.789 36.056C105.261 36.2265 105.701 36.4374 106.109 36.6886C106.199 36.7438 106.287 36.8009 106.373 36.86L107.261 35.492C107.074 35.3534 106.873 35.2227 106.657 35.1001C106.577 35.0544 106.495 35.0098 106.41 34.9663C106.081 34.7966 105.72 34.6438 105.329 34.508C104.577 34.236 103.693 34.1 102.677 34.1C101.725 34.1 100.889 34.24 100.169 34.52C99.4492 34.792 98.8851 35.188 98.4771 35.708C98.0771 36.22 97.8772 36.832 97.8772 37.544C97.8772 38.272 98.0532 38.864 98.4052 39.32C98.7652 39.776 99.2652 40.148 99.9052 40.436C100.553 40.716 101.313 40.964 102.185 41.18C103.081 41.404 103.745 41.628 104.177 41.852C104.609 42.076 104.893 42.328 105.029 42.608C105.173 42.888 105.245 43.22 105.245 43.604C105.245 44.212 104.961 44.7 104.393 45.068ZM103.851 44.2278C103.51 44.4466 102.958 44.608 102.101 44.608C101.473 44.608 100.902 44.5042 100.378 44.3047C99.829 44.0845 99.3537 43.8043 98.9444 43.4677L98.191 42.8479L95.7477 45.673L96.5018 46.3273C97.1402 46.8813 97.9076 47.3371 98.7859 47.706L98.797 47.7106C99.7554 48.0996 100.866 48.276 102.101 48.276C103.098 48.276 104.053 48.1391 104.963 47.86L104.968 47.8582C105.928 47.5573 106.749 47.0681 107.394 46.3721L107.399 46.3668C108.109 45.5899 108.429 44.6058 108.429 43.508C108.429 42.5808 108.225 41.7251 107.735 41.0181C107.282 40.3651 106.664 39.8607 105.918 39.4923C105.236 39.1518 104.455 38.8706 103.583 38.6417C102.748 38.4154 102.119 38.2157 101.682 38.0441C101.285 37.8808 101.102 37.7426 101.033 37.6703C101 37.6249 100.965 37.5472 100.965 37.388C100.965 37.2395 101.004 37.1354 101.179 37.0074L101.189 37C101.334 36.8915 101.757 36.732 102.701 36.732C103.434 36.732 104.004 36.8297 104.438 36.9923L104.45 36.9966C104.95 37.1774 105.402 37.4078 105.809 37.6857L106.654 38.2634L108.611 35.2488L107.857 34.6891C107.233 34.2258 106.496 33.8553 105.663 33.5654C104.779 33.2465 103.777 33.1 102.677 33.1C101.631 33.1 100.669 33.2534 99.8111 33.5863C98.9509 33.9121 98.2276 34.4061 97.6904 35.0907L97.6891 35.0924C97.1384 35.7973 96.8772 36.6316 96.8772 37.544C96.8772 38.4339 97.0943 39.2583 97.6136 39.9311L97.6203 39.9397C98.0985 40.5454 98.7385 41.0076 99.4948 41.3479L99.5016 41.351L99.5085 41.354C100.218 41.6606 101.032 41.9245 101.943 42.1503C102.818 42.369 103.391 42.5706 103.717 42.7398C103.879 42.8238 103.985 42.8986 104.05 42.957C104.115 43.0144 104.13 43.046 104.13 43.0449L104.135 43.0552L104.14 43.0654C104.197 43.1761 104.245 43.3446 104.245 43.604C104.245 43.8297 104.171 44.0199 103.851 44.2278Z" fill="white"/>
<path fill-rule="evenodd" clip-rule="evenodd" d="M83.4145 47H85.4305V37.796C85.6545 37.468 85.9345 37.144 86.2705 36.824C86.6145 36.496 87.0025 36.224 87.4345 36.008C87.8745 35.792 88.3425 35.684 88.8385 35.684C89.4785 35.684 89.9505 35.808 90.2545 36.056C90.5585 36.296 90.7585 36.684 90.8545 37.22C90.9505 37.748 90.9985 38.444 90.9985 39.308V47H93.0145V37.82C93.0145 36.652 92.7305 35.74 92.1625 35.084C91.6025 34.428 90.7025 34.1 89.4625 34.1C88.7345 34.1 87.9825 34.276 87.2065 34.628C86.8462 34.7894 86.514 34.9843 86.21 35.2126C85.8661 35.4709 85.5583 35.772 85.2865 36.116L85.1305 34.364H83.4145V47ZM86.1088 34.0758L86.0454 33.364H82.4145V48H86.4305V38.1236C86.5786 37.9362 86.7543 37.7442 86.9602 37.5481C87.2301 37.2908 87.5352 37.0761 87.8783 36.9042C88.1785 36.7573 88.4946 36.684 88.8385 36.684C89.3831 36.684 89.5791 36.7955 89.6224 36.8309L89.6286 36.8359L89.6349 36.8409C89.6815 36.8777 89.7999 37.0037 89.8702 37.3963L89.8707 37.3989C89.9515 37.8434 89.9985 38.4725 89.9985 39.308V48H94.0145V37.82C94.0145 36.4967 93.6919 35.3241 92.9207 34.4319C92.0991 33.4716 90.8618 33.1 89.4625 33.1C88.5705 33.1 87.6788 33.316 86.7957 33.7163C86.5569 33.8234 86.3278 33.9432 86.1088 34.0758Z" fill="white"/>
<path fill-rule="evenodd" clip-rule="evenodd" d="M70.7111 42.396C70.6569 42.0862 70.6225 41.7529 70.6079 41.396H79.1039C79.1199 41.252 79.1319 41.088 79.1399 40.904C79.1479 40.712 79.1519 40.508 79.1519 40.292C79.1519 39.012 78.9439 37.912 78.5279 36.992C78.1199 36.064 77.5319 35.352 76.7639 34.856C75.9959 34.352 75.0799 34.1 74.0159 34.1C72.8959 34.1 71.9239 34.384 71.0999 34.952C70.2759 35.52 69.6359 36.3 69.1799 37.292C68.7239 38.284 68.4959 39.42 68.4959 40.7C68.4959 42.004 68.7199 43.152 69.1679 44.144C69.6239 45.128 70.2839 45.896 71.1479 46.448C72.0119 47 73.0559 47.276 74.2799 47.276C75.0719 47.276 75.8439 47.144 76.5959 46.88C77.0208 46.7324 77.4194 46.5536 77.7918 46.3435C77.9076 46.2781 78.0209 46.2097 78.1317 46.1383C78.3018 46.0287 78.4658 45.9119 78.6239 45.788L77.6759 44.456C77.1239 44.832 76.5839 45.116 76.0559 45.308C75.5359 45.5 74.9519 45.596 74.3039 45.596C73.6559 45.596 73.0559 45.452 72.5039 45.164C71.9519 44.868 71.5079 44.412 71.1719 43.796C70.9588 43.4002 70.8052 42.9335 70.7111 42.396ZM71.7294 42.396C71.8076 42.7667 71.918 43.0717 72.0511 43.3196C72.3042 43.7826 72.6138 44.087 72.9716 44.2801C73.3735 44.4888 73.8123 44.596 74.3039 44.596C74.8533 44.596 75.3174 44.5147 75.7095 44.3699L75.7141 44.3682C76.1509 44.2094 76.6172 43.9672 77.1129 43.6295L77.9226 43.078L79.9923 45.9861L79.2408 46.5751C78.5564 47.1114 77.782 47.5264 76.9256 47.8241C76.0683 48.1249 75.1849 48.276 74.2799 48.276C72.9025 48.276 71.6632 47.9639 70.6095 47.2907C69.5753 46.63 68.7919 45.711 68.2606 44.5645L68.2565 44.5556C67.7397 43.4112 67.4959 42.1183 67.4959 40.7C67.4959 39.3005 67.7456 38.018 68.2713 36.8743C68.7954 35.7342 69.5469 34.8079 70.5324 34.1287C71.5428 33.4321 72.7183 33.1 74.0159 33.1C75.2419 33.1 76.3546 33.3922 77.3095 34.0179C78.2566 34.6305 78.9639 35.5012 79.4412 36.5848C79.9277 37.6629 80.1519 38.9087 80.1519 40.292C80.1519 40.5202 80.1477 40.7382 80.139 40.9456L80.139 40.9474C80.1302 41.1482 80.1168 41.3352 80.0978 41.5064L79.9989 42.396H71.7294ZM71.6879 36.752C72.3199 36.088 73.1039 35.756 74.0399 35.756C74.9919 35.756 75.7519 36.1 76.3199 36.788C76.738 37.2886 77.0088 37.9713 77.1321 38.836C77.1763 39.1459 77.2016 39.4793 77.2079 39.836H70.6199C70.6425 39.4787 70.6827 39.1454 70.7406 38.836C70.9083 37.9402 71.2241 37.2456 71.6879 36.752ZM72.4144 37.4392C72.1425 37.7296 71.9081 38.176 71.7611 38.836H76.1202C76.0088 38.1789 75.8022 37.7281 75.5524 37.4291L75.5487 37.4247C75.1848 36.9838 74.7164 36.756 74.0399 36.756C73.3723 36.756 72.8527 36.9797 72.4144 37.4392Z" fill="white"/>
<path fill-rule="evenodd" clip-rule="evenodd" d="M64.166 46.6487C64.3442 46.562 64.5107 46.4671 64.6653 46.364L63.8853 44.996C63.8853 44.996 63.8853 44.996 63.8853 44.996C63.5413 45.172 63.1693 45.316 62.7693 45.428C62.3693 45.54 61.9333 45.596 61.4613 45.596C60.5973 45.596 59.9773 45.412 59.6013 45.044C59.2333 44.676 59.0493 44.14 59.0493 43.436V35.924H63.1773L63.4173 34.364H59.0493V31.256L57.0333 31.496V34.364H54.1293V35.924H57.0333V43.46C57.0333 44.58 57.4013 45.496 58.1373 46.208C58.8733 46.92 59.9213 47.276 61.2813 47.276C61.8733 47.276 62.4773 47.196 63.0933 47.036C63.3341 46.9735 63.5609 46.9011 63.7736 46.819C63.9102 46.7663 64.041 46.7095 64.166 46.6487ZM56.0333 36.924V43.46C56.0333 44.8229 56.4919 46.0077 57.442 46.9267C58.4192 47.8721 59.7494 48.276 61.2813 48.276C61.9642 48.276 62.6527 48.1836 63.3447 48.0039C64.0451 47.822 64.6769 47.5581 65.22 47.1961L65.9959 46.6788L64.2806 43.6705L63.4298 44.1058C63.1494 44.2492 62.8402 44.3697 62.4996 44.465C62.1984 44.5494 61.8543 44.596 61.4613 44.596C60.7082 44.596 60.4075 44.4309 60.3042 44.3327C60.1833 44.2094 60.0493 43.9649 60.0493 43.436V36.924H64.0352L64.5829 33.364H60.0493V30.1299L56.0333 30.608V33.364H53.1293V36.924H56.0333Z" fill="white"/>
<path fill-rule="evenodd" clip-rule="evenodd" d="M46.1627 28.276V43.88C46.1627 44.2598 46.2598 44.3547 46.2963 44.3817C46.4824 44.4996 46.7779 44.596 47.2507 44.596C47.565 44.596 47.8525 44.5633 48.1161 44.502C48.4099 44.4337 48.7067 44.3407 49.007 44.222L49.9612 43.8448L51.1635 47.131L50.3535 47.5266C49.9304 47.7332 49.4347 47.9013 48.882 48.0399C48.279 48.2016 47.62 48.276 46.9147 48.276C45.603 48.276 44.4426 47.9104 43.5279 47.1008L43.5231 47.0966C42.5785 46.2497 42.1467 45.0984 42.1467 43.772V31.872H38.2707V28.276H46.1627ZM43.1467 30.872V43.772C43.1467 44.868 43.4947 45.728 44.1907 46.352C44.8867 46.968 45.7947 47.276 46.9147 47.276C47.5547 47.276 48.1267 47.208 48.6307 47.072C49.1427 46.944 49.5707 46.796 49.9147 46.628L49.3747 45.152C49.25 45.2013 49.1253 45.2469 49.0007 45.2888C48.7813 45.3626 48.562 45.425 48.3427 45.476C47.9987 45.556 47.6347 45.596 47.2507 45.596C46.6347 45.596 46.1307 45.468 45.7387 45.212C45.3547 44.948 45.1627 44.504 45.1627 43.88V29.276H39.2707V30.872H43.1467Z" fill="white"/>
<path fill-rule="evenodd" clip-rule="evenodd" d="M27.5393 42.396C27.4851 42.0862 27.4507 41.7529 27.436 41.396H35.932C35.948 41.252 35.96 41.088 35.968 40.904C35.976 40.712 35.98 40.508 35.98 40.292C35.98 39.012 35.772 37.912 35.356 36.992C34.948 36.064 34.36 35.352 33.592 34.856C32.824 34.352 31.908 34.1 30.844 34.1C29.724 34.1 28.752 34.384 27.928 34.952C27.104 35.52 26.464 36.3 26.008 37.292C25.552 38.284 25.324 39.42 25.324 40.7C25.324 42.004 25.548 43.152 25.996 44.144C26.452 45.128 27.112 45.896 27.976 46.448C28.84 47 29.884 47.276 31.108 47.276C31.9 47.276 32.672 47.144 33.424 46.88C33.8489 46.7324 34.2476 46.5536 34.6199 46.3435C34.7358 46.2781 34.8491 46.2097 34.9598 46.1383C35.1299 46.0287 35.2939 45.9119 35.452 45.788L34.504 44.456C33.952 44.832 33.412 45.116 32.884 45.308C32.364 45.5 31.78 45.596 31.132 45.596C30.484 45.596 29.884 45.452 29.332 45.164C28.78 44.868 28.336 44.412 28 43.796C27.7869 43.4002 27.6333 42.9335 27.5393 42.396ZM28.5575 42.396C28.6358 42.7667 28.7461 43.0718 28.8793 43.3197C29.1324 43.7827 29.4419 44.087 29.7997 44.2801C30.2016 44.4888 30.6404 44.596 31.132 44.596C31.6814 44.596 32.1455 44.5147 32.5377 44.3699L32.5423 44.3682C32.9791 44.2094 33.4453 43.9672 33.9411 43.6295L34.7507 43.078L36.8204 45.9861L36.0689 46.5751C35.3846 47.1114 34.6101 47.5264 33.7537 47.8241C32.8965 48.1249 32.013 48.276 31.108 48.276C29.7307 48.276 28.4913 47.9639 27.4376 47.2907C26.4035 46.63 25.6201 45.711 25.0887 44.5645L25.0846 44.5556C24.5678 43.4112 24.324 42.1183 24.324 40.7C24.324 39.3005 24.5737 38.018 25.0994 36.8743C25.6235 35.7342 26.3751 34.8079 27.3605 34.1287C28.3709 33.4321 29.5464 33.1 30.844 33.1C32.0701 33.1 33.1828 33.3923 34.1377 34.018C35.0848 34.6306 35.792 35.5012 36.2693 36.5847C36.7559 37.6629 36.98 38.9087 36.98 40.292C36.98 40.5202 36.9758 40.7382 36.9672 40.9456L36.9671 40.9474C36.9584 41.1482 36.9449 41.3352 36.9259 41.5064L36.8271 42.396H28.5575ZM28.516 36.752C29.148 36.088 29.932 35.756 30.868 35.756C31.82 35.756 32.58 36.1 33.148 36.788C33.5662 37.2886 33.8369 37.9713 33.9602 38.836C34.0044 39.1459 34.0297 39.4793 34.036 39.836H27.448C27.4706 39.4787 27.5109 39.1454 27.5688 38.836C27.7365 37.9402 28.0522 37.2456 28.516 36.752ZM29.2427 37.439C28.9707 37.7295 28.7362 38.1759 28.5892 38.836H32.9483C32.8369 38.1789 32.6303 37.7281 32.3805 37.4291L32.3769 37.4247C32.0129 36.9839 31.5445 36.756 30.868 36.756C30.2005 36.756 29.681 36.9796 29.2427 37.439Z" fill="white"/>
</svg>
