<svg width="34" height="55" viewBox="0 0 34 55" fill="none" xmlns="http://www.w3.org/2000/svg">
<path fill-rule="evenodd" clip-rule="evenodd" d="M14.7293 1.15732H19.2707L28.4352 29.8427H24.7121L22.6119 27.7757H10.679L9.0629 29.8427H5.56485L14.7293 1.15732ZM11.2268 28.933L9.61074 31H4L13.904 0H20.096L30 31H24.2527L22.1525 28.933H11.2268ZM20.9072 26.0397L16.9182 4.19876L11.8154 26.0397H20.9072ZM13.254 24.8824H19.5399L16.7819 9.78203L13.254 24.8824Z" fill="#3DCFB6"/>
<path fill-rule="evenodd" clip-rule="evenodd" d="M24.7999 31.2317L16.6441 50.6991L11.3126 37.5699L9.06474 31.6845L5.63671 31.8656L14.3551 53.8682H18.9332L28.3684 31.6845L24.7999 31.2317ZM12.3708 37.1566L9.83237 30.5105L4 30.8186L13.5817 55H19.6861L30 30.7505L24.0844 30L16.6605 47.7204L12.3708 37.1566Z" fill="#3DCFB6"/>
</svg>
