<svg width="125" height="55" viewBox="0 0 125 55" fill="none" xmlns="http://www.w3.org/2000/svg">
<g clip-path="url(#clip0_1_2)">
<path fill-rule="evenodd" clip-rule="evenodd" d="M14.7293 1.15732H19.2707L28.4352 29.8427H24.7121L22.6119 27.7757H10.679L9.0629 29.8427H5.56485L14.7293 1.15732ZM11.2268 28.933L9.61074 31H4L13.904 0H20.096L30 31H24.2527L22.1525 28.933H11.2268ZM20.9072 26.0397L16.9182 4.19876L11.8154 26.0397H20.9072ZM13.254 24.8824H19.5399L16.7819 9.78203L13.254 24.8824Z" fill="#3DCFB6"/>
<path fill-rule="evenodd" clip-rule="evenodd" d="M24.7999 31.2317L16.6441 50.6991L11.3126 37.5699L9.06474 31.6845L5.63671 31.8656L14.3551 53.8682H18.9332L28.3684 31.6845L24.7999 31.2317ZM12.3708 37.1566L9.83237 30.5105L4 30.8186L13.5817 55H19.6861L30 30.7505L24.0844 30L16.6605 47.7204L12.3708 37.1566Z" fill="#3DCFB6"/>
<path fill-rule="evenodd" clip-rule="evenodd" d="M85.6992 23.2368C85.6375 22.8838 85.5983 22.5041 85.5816 22.0975H95.261C95.2792 21.9335 95.2929 21.7466 95.302 21.537C95.3111 21.3182 95.3156 21.0858 95.3156 20.8397C95.3156 19.3815 95.0787 18.1283 94.6047 17.0801C94.1399 16.0229 93.47 15.2117 92.595 14.6466C91.7201 14.0724 90.6765 13.7853 89.4643 13.7853C88.1883 13.7853 87.0809 14.1089 86.1421 14.756C85.2034 15.4031 84.4742 16.2917 83.9547 17.4219C83.4352 18.5521 83.1754 19.8463 83.1754 21.3046C83.1754 22.7902 83.4307 24.0981 83.941 25.2283C84.4606 26.3493 85.2125 27.2243 86.1968 27.8532C87.1812 28.4821 88.3706 28.7965 89.7651 28.7965C90.6674 28.7965 91.5469 28.6461 92.4036 28.3453C92.8877 28.1772 93.3419 27.9734 93.7661 27.7341C93.8981 27.6596 94.0272 27.5817 94.1533 27.5003C94.3471 27.3754 94.534 27.2424 94.7141 27.1012L93.6341 25.5837C93.0052 26.0121 92.39 26.3356 91.7884 26.5544C91.196 26.7731 90.5307 26.8825 89.7924 26.8825C89.0541 26.8825 88.3706 26.7184 87.7417 26.3903C87.1128 26.0531 86.607 25.5336 86.2242 24.8318C85.9813 24.3808 85.8064 23.8491 85.6992 23.2368ZM86.8593 23.2368C86.9484 23.6591 87.0742 24.0066 87.2258 24.289C87.5142 24.8166 87.8669 25.1633 88.2745 25.3833C88.7324 25.621 89.2323 25.7432 89.7924 25.7432C90.4183 25.7432 90.9471 25.6506 91.3938 25.4856L91.3991 25.4837C91.8967 25.3027 92.4279 25.0269 92.9927 24.6421L93.9151 24.0138L96.2731 27.3269L95.4169 27.9979C94.6372 28.609 93.7549 29.0818 92.7792 29.4209C91.8026 29.7636 90.7961 29.9358 89.7651 29.9358C88.1959 29.9358 86.7839 29.5802 85.5835 28.8132C84.4052 28.0605 83.5127 27.0135 82.9074 25.7073L82.9027 25.6972C82.3139 24.3934 82.0362 22.9204 82.0362 21.3046C82.0362 19.7101 82.3206 18.249 82.9196 16.9461C83.5166 15.6472 84.3729 14.5918 85.4955 13.818C86.6467 13.0244 87.986 12.646 89.4643 12.646C90.8611 12.646 92.1287 12.979 93.2166 13.6918C94.2957 14.3897 95.1015 15.3817 95.6453 16.6162C96.1995 17.8445 96.4549 19.2638 96.4549 20.8397C96.4549 21.0997 96.4501 21.3481 96.4403 21.5844L96.4402 21.5865C96.4302 21.8151 96.415 22.0282 96.3933 22.2233L96.2807 23.2368H86.8593ZM86.812 16.8067C87.5321 16.0502 88.4253 15.672 89.4916 15.672C90.5762 15.672 91.4421 16.0639 92.0892 16.8477C92.5656 17.418 92.874 18.1958 93.0145 19.181C93.0649 19.5341 93.0937 19.9138 93.1009 20.3202H85.5953C85.621 19.9131 85.6669 19.5334 85.7328 19.181C85.9239 18.1604 86.2836 17.369 86.812 16.8067ZM87.6397 17.5896C87.3299 17.9204 87.0629 18.429 86.8954 19.181H91.8617C91.7348 18.4324 91.4994 17.9187 91.2148 17.5781L91.2106 17.573C90.796 17.0708 90.2624 16.8112 89.4916 16.8112C88.731 16.8112 88.1391 17.0661 87.6397 17.5896Z" fill="white"/>
<path fill-rule="evenodd" clip-rule="evenodd" d="M67.5187 26.7185V28.4821H74.9833V26.7185H72.0576V20.621C72.5316 19.0352 73.165 17.8503 73.9579 17.0665C74.4958 16.5348 75.1049 16.1835 75.7854 16.0124C76.1081 15.9313 76.4468 15.8907 76.8016 15.8907C76.8432 15.8907 76.8842 15.8911 76.9246 15.8919V18.9531H78.8113L79.1394 14.0861C78.8113 13.995 78.4877 13.9221 78.1687 13.8674C78.1207 13.8575 78.0715 13.8483 78.0213 13.84C77.7623 13.7969 77.4742 13.7742 77.1571 13.7719C77.1389 13.7717 77.1207 13.7717 77.1024 13.7717C76.7267 13.7717 76.3722 13.7986 76.0389 13.8523C75.216 13.9851 74.5223 14.2818 73.9579 14.7423C73.5712 15.0579 73.2127 15.4375 72.8823 15.881C72.5353 16.3469 72.2194 16.8833 71.9346 17.4903L71.5108 14.0861H67.5187V15.8497H69.7608V26.7185H67.5187ZM68.6215 16.989H66.3794V12.9468H72.517L72.6924 14.3556C72.8669 14.1794 73.0486 14.0139 73.2376 13.8597C74.2842 13.0056 75.6097 12.6324 77.1024 12.6324C77.5538 12.6324 77.9822 12.6675 78.3792 12.7476C78.6814 12.7999 78.9853 12.8665 79.2906 12.9468H80.3581L80.3385 13.2368L80.5923 13.3073L80.2665 14.3047L79.8764 20.0924H75.7854V17.2035C75.4137 17.3419 75.0747 17.5645 74.7589 17.8767C74.1736 18.4553 73.6327 19.3929 73.1969 20.791V25.5792H76.1226V29.6214H66.3794V25.5792H68.6215V16.989Z" fill="white"/>
<path fill-rule="evenodd" clip-rule="evenodd" d="M58.4607 6.71179L63.0361 7.28371V29.6214H58.8714L58.8007 29.0069C58.6472 29.1053 58.4891 29.1959 58.3262 29.2785C57.4704 29.7171 56.5499 29.9358 55.5806 29.9358C54.1355 29.9358 52.8441 29.5686 51.7928 28.7536C50.7819 27.9699 50.0636 26.8995 49.6108 25.6043L49.6099 25.6016C49.1676 24.3263 48.9591 22.8878 48.9591 21.3046C48.9591 19.7478 49.2005 18.3173 49.7082 17.0319C50.2181 15.7319 50.9742 14.6596 51.9992 13.8683C53.0675 13.0415 54.3358 12.6461 55.7447 12.6461C56.7051 12.6461 57.6011 12.8148 58.4051 13.1864C58.4237 13.1948 58.4422 13.2032 58.4607 13.2118V6.71179ZM59.6 15.4806C59.257 15.0858 58.8772 14.76 58.4607 14.5031C58.2906 14.3982 58.1144 14.3048 57.9321 14.2228C57.3032 13.9312 56.5741 13.7853 55.7447 13.7853C54.5598 13.7853 53.5436 14.1135 52.696 14.7697C51.8574 15.4168 51.2149 16.31 50.7683 17.4493C50.3217 18.5794 50.0984 19.8646 50.0984 21.3046C50.0984 22.7902 50.2943 24.0981 50.6863 25.2283C51.0782 26.3494 51.6797 27.2243 52.4909 27.8532C53.3021 28.4821 54.332 28.7965 55.5806 28.7965C56.3736 28.7965 57.1164 28.6188 57.8091 28.2633C58.1042 28.1139 58.3848 27.9281 58.651 27.7061C59.0176 27.4002 59.3568 27.0254 59.6684 26.5818L59.8871 28.4821H61.8968V8.28945L59.6 8.00235V15.4806ZM58.1508 26.24C58.7341 25.7752 59.2172 25.2511 59.6 24.6678V17.4766C59.2081 16.8933 58.7341 16.4422 58.1782 16.1232C57.6222 15.795 57.0116 15.631 56.3462 15.631C55.1431 15.631 54.218 16.1004 53.5709 17.0391C52.9238 17.9779 52.6003 19.3997 52.6003 21.3046C52.6003 22.5442 52.7324 23.5832 52.9967 24.4217C53.261 25.2602 53.6484 25.8891 54.1588 26.3083C54.6783 26.7276 55.3117 26.9372 56.0591 26.9372C56.8794 26.9372 57.5766 26.7048 58.1508 26.24ZM58.4607 17.8484C58.2048 17.5302 57.921 17.2891 57.6112 17.1113L57.5991 17.1044C57.2241 16.8831 56.8144 16.7703 56.3462 16.7703C55.4933 16.7703 54.9299 17.0751 54.5089 17.6857C54.0544 18.3451 53.7395 19.4912 53.7395 21.3046C53.7395 22.4716 53.865 23.3866 54.0833 24.0792C54.3018 24.7722 54.5878 25.1848 54.8782 25.4249C55.1702 25.6592 55.5414 25.7979 56.0591 25.7979C56.649 25.7979 57.0852 25.6368 57.434 25.3545L57.4408 25.349C57.8424 25.0289 58.1807 24.682 58.4607 24.3087V17.8484Z" fill="white"/>
<path fill-rule="evenodd" clip-rule="evenodd" d="M34.592 28.4821H36.8888V17.9961C37.144 17.6224 37.463 17.2533 37.8458 16.8887C38.2377 16.515 38.6798 16.2051 39.172 15.9591C39.6732 15.713 40.2064 15.5899 40.7715 15.5899C41.5007 15.5899 42.0384 15.7312 42.3847 16.0137C42.7311 16.2872 42.9589 16.7292 43.0683 17.3399C43.1777 17.9414 43.2324 18.7344 43.2324 19.7187V28.4821H45.5292V18.0234C45.5292 16.6928 45.2056 15.6537 44.5585 14.9064C43.9205 14.159 42.8951 13.7853 41.4824 13.7853C40.653 13.7853 39.7963 13.9858 38.9122 14.3869C38.5017 14.5707 38.1232 14.7927 37.7769 15.0529C37.3851 15.3472 37.0344 15.6902 36.7248 16.0821L36.547 14.0861H34.592V28.4821ZM37.6616 13.7577L37.5894 12.9468H33.4528V29.6213H38.0281V18.3693C38.1969 18.1558 38.397 17.9371 38.6315 17.7137C38.9391 17.4205 39.2868 17.1759 39.6776 16.98C40.0197 16.8127 40.3797 16.7292 40.7715 16.7292C41.3919 16.7292 41.6152 16.8563 41.6646 16.8965L41.6716 16.9023L41.6788 16.9079C41.7319 16.9499 41.8668 17.0934 41.9469 17.5407L41.9474 17.5437C42.0395 18.05 42.0931 18.7668 42.0931 19.7187V29.6213H46.6684V18.0234C46.6684 16.5159 46.3009 15.1801 45.4225 14.1637C44.4864 13.0694 43.0767 12.646 41.4824 12.646C40.4661 12.646 39.4501 12.8922 38.4439 13.3483C38.1719 13.4702 37.9111 13.6067 37.6616 13.7577Z" fill="white"/>
<path fill-rule="evenodd" clip-rule="evenodd" d="M118.376 51.3452C117.738 51.7553 116.868 51.9604 115.765 51.9604C114.917 51.9604 114.124 51.8191 113.386 51.5366C112.657 51.2449 112.01 50.8667 111.445 50.4019L110.133 51.919C110.138 51.9236 110.143 51.9285 110.148 51.933C110.422 52.1689 110.724 52.3898 111.054 52.5958C111.468 52.8542 111.926 53.089 112.429 53.3002C113.35 53.6739 114.462 53.8607 115.765 53.8607C116.795 53.8607 117.77 53.7194 118.691 53.4369C119.62 53.1452 120.377 52.685 120.96 52.0561C121.543 51.4181 121.835 50.5887 121.835 49.5679C121.835 48.6747 121.639 47.9456 121.247 47.3805C120.855 46.8154 120.308 46.3597 119.607 46.0133C118.914 45.667 118.098 45.3708 117.159 45.1247C116.184 44.8604 115.419 44.6189 114.863 44.4001C114.307 44.1723 113.91 43.9216 113.673 43.6482C113.445 43.3656 113.331 43.0147 113.331 42.5955C113.331 42.0395 113.568 41.5884 114.042 41.242C114.516 40.8866 115.318 40.7088 116.448 40.7088C117.378 40.7088 118.171 40.8319 118.827 41.078C119.365 41.2722 119.867 41.5125 120.331 41.7986C120.433 41.8615 120.533 41.9266 120.632 41.994L121.644 40.4354C121.431 40.2775 121.202 40.1286 120.956 39.9889C120.864 39.9369 120.77 39.8861 120.674 39.8365C120.299 39.6432 119.888 39.4691 119.443 39.3144C118.586 39.0045 117.579 38.8495 116.421 38.8495C115.337 38.8495 114.384 39.009 113.564 39.328C112.744 39.6379 112.101 40.0891 111.636 40.6815C111.18 41.2648 110.953 41.9621 110.953 42.7732C110.953 43.6026 111.153 44.2771 111.554 44.7966C111.964 45.3161 112.534 45.7399 113.263 46.068C114.001 46.387 114.867 46.6696 115.861 46.9157C116.881 47.1709 117.638 47.4261 118.13 47.6812C118.622 47.9365 118.946 48.2235 119.101 48.5425C119.265 48.8615 119.347 49.2398 119.347 49.6773C119.347 50.37 119.023 50.9259 118.376 51.3452ZM117.758 50.388C117.37 50.6372 116.742 50.8211 115.765 50.8211C115.05 50.8211 114.398 50.7029 113.801 50.4756C113.176 50.2247 112.635 49.9055 112.169 49.522L111.31 48.8159L108.527 52.0345L109.386 52.7799C110.113 53.411 110.987 53.9303 111.988 54.3506L112.001 54.3558C113.092 54.799 114.358 55 115.765 55C116.9 55 117.989 54.8441 119.025 54.5261L119.032 54.5239C120.124 54.1812 121.06 53.6239 121.795 52.8309L121.801 52.8248C122.61 51.9398 122.974 50.8186 122.974 49.5679C122.974 48.5115 122.742 47.5367 122.183 46.7312C121.667 45.9872 120.963 45.4126 120.113 44.9928C119.337 44.605 118.447 44.2846 117.453 44.0239C116.502 43.766 115.786 43.5385 115.287 43.3429C114.835 43.1569 114.627 42.9995 114.548 42.9171C114.511 42.8653 114.471 42.7769 114.471 42.5955C114.471 42.4263 114.515 42.3077 114.715 42.1619L114.726 42.1535C114.891 42.0299 115.373 41.8481 116.448 41.8481C117.284 41.8481 117.933 41.9594 118.427 42.1447L118.44 42.1495C119.011 42.3556 119.526 42.618 119.989 42.9346L120.952 43.5928L123.182 40.1584L122.323 39.5207C121.612 38.9929 120.772 38.5707 119.823 38.2405C118.815 37.8771 117.674 37.7103 116.421 37.7103C115.229 37.7103 114.133 37.8851 113.156 38.2643C112.176 38.6354 111.352 39.1983 110.74 39.9782L110.738 39.9801C110.111 40.7832 109.813 41.7337 109.813 42.7732C109.813 43.7871 110.061 44.7263 110.652 45.4927L110.66 45.5025C111.205 46.1926 111.934 46.7192 112.796 47.107L112.803 47.1105L112.811 47.1139C113.62 47.4631 114.547 47.7638 115.585 48.021C116.581 48.2702 117.234 48.4999 117.606 48.6927C117.79 48.7884 117.911 48.8737 117.986 48.9401C118.059 49.0056 118.077 49.0415 118.076 49.0403L118.082 49.052L118.088 49.0636C118.152 49.1898 118.208 49.3818 118.208 49.6773C118.208 49.9344 118.123 50.151 117.758 50.388Z" fill="white"/>
<path fill-rule="evenodd" clip-rule="evenodd" d="M94.4756 53.5463H96.7724V43.0603C97.0276 42.6866 97.3466 42.3175 97.7294 41.9529C98.1213 41.5793 98.5633 41.2694 99.0555 41.0233C99.5568 40.7772 100.09 40.6542 100.655 40.6542C101.384 40.6542 101.922 40.7954 102.268 41.078C102.615 41.3514 102.842 41.7934 102.952 42.4041C103.061 43.0056 103.116 43.7986 103.116 44.7829V53.5463H105.413V43.0877C105.413 41.757 105.089 40.718 104.442 39.9706C103.804 39.2232 102.779 38.8495 101.366 38.8495C100.537 38.8495 99.6798 39.05 98.7957 39.4511C98.3852 39.635 98.0068 39.857 97.6604 40.1171C97.2686 40.4114 96.9179 40.7545 96.6083 41.1463L96.4306 39.1503H94.4756V53.5463ZM97.5451 38.8219L97.4729 38.011H93.3363V54.6856H97.9116V43.4335C98.0804 43.22 98.2805 43.0013 98.5151 42.7779C98.8226 42.4847 99.1702 42.2402 99.561 42.0443C99.9031 41.877 100.263 41.7934 100.655 41.7934C101.275 41.7934 101.499 41.9205 101.548 41.9608L101.555 41.9665L101.562 41.9722C101.615 42.0141 101.75 42.1577 101.83 42.6049L101.831 42.6079C101.923 43.1143 101.977 43.831 101.977 44.7829V54.6856H106.552V43.0877C106.552 41.58 106.184 40.2441 105.306 39.2277C104.37 38.1336 102.96 37.7103 101.366 37.7103C100.35 37.7103 99.3338 37.9564 98.3276 38.4124C98.0556 38.5344 97.7947 38.6709 97.5451 38.8219Z" fill="white"/>
<path fill-rule="evenodd" clip-rule="evenodd" d="M80.0028 48.301C79.9411 47.9481 79.9019 47.5683 79.8852 47.1617H89.5645C89.5828 46.9977 89.5964 46.8108 89.6056 46.6012C89.6147 46.3825 89.6192 46.1501 89.6192 45.904C89.6192 44.4457 89.3823 43.1925 88.9083 42.1443C88.4435 41.0871 87.7736 40.2759 86.8986 39.7108C86.0237 39.1366 84.9801 38.8495 83.7679 38.8495C82.4919 38.8495 81.3845 39.1731 80.4457 39.8202C79.507 40.4673 78.7778 41.356 78.2583 42.4861C77.7388 43.6163 77.479 44.9105 77.479 46.3688C77.479 47.8544 77.7342 49.1623 78.2446 50.2925C78.7642 51.4135 79.5161 52.2885 80.5004 52.9174C81.4848 53.5463 82.6742 53.8607 84.0686 53.8607C84.971 53.8607 85.8505 53.7103 86.7072 53.4096C87.1913 53.2414 87.6455 53.0377 88.0697 52.7983C88.2017 52.7238 88.3308 52.6459 88.4569 52.5646C88.6507 52.4397 88.8376 52.3066 89.0177 52.1655L87.9377 50.6479C87.3088 51.0763 86.6936 51.3999 86.092 51.6186C85.4996 51.8374 84.8342 51.9467 84.096 51.9467C83.3577 51.9467 82.6742 51.7827 82.0453 51.4546C81.4164 51.1173 80.9106 50.5978 80.5278 49.896C80.2849 49.445 80.1099 48.9134 80.0028 48.301ZM81.1629 48.301C81.252 48.7233 81.3778 49.0708 81.5294 49.3532C81.8178 49.8808 82.1705 50.2275 82.5781 50.4475C83.036 50.6852 83.5359 50.8074 84.096 50.8074C84.7219 50.8074 85.2507 50.7148 85.6974 50.5499L85.7027 50.5479C86.2003 50.367 86.7315 50.0911 87.2963 49.7063L88.2187 49.078L90.5766 52.3911L89.7205 53.0621C88.9408 53.6732 88.0585 54.146 87.0828 54.4851C86.1062 54.8278 85.0997 55 84.0686 55C82.4994 55 81.0874 54.6444 79.887 53.8775C78.7088 53.1247 77.8163 52.0778 77.211 50.7715L77.2063 50.7614C76.6175 49.4577 76.3398 47.9846 76.3398 46.3688C76.3398 44.7743 76.6242 43.3133 77.2232 42.0103C77.8202 40.7114 78.6765 39.6561 79.7991 38.8822C80.9503 38.0886 82.2895 37.7103 83.7679 37.7103C85.1647 37.7103 86.4323 38.0432 87.5202 38.756C88.5993 39.454 89.405 40.4459 89.9489 41.6804C90.5031 42.9087 90.7585 44.328 90.7585 45.904C90.7585 46.164 90.7537 46.4123 90.7439 46.6486L90.7438 46.6507C90.7338 46.8794 90.7185 47.0924 90.6969 47.2876L90.5842 48.301H81.1629ZM81.1156 41.8709C81.8357 41.1144 82.7289 40.7362 83.7952 40.7362C84.8798 40.7362 85.7457 41.1281 86.3928 41.9119C86.8692 42.4822 87.1776 43.26 87.3181 44.2452C87.3685 44.5983 87.3973 44.978 87.4045 45.3845H79.8989C79.9246 44.9774 79.9705 44.5976 80.0364 44.2452C80.2275 43.2246 80.5872 42.4332 81.1156 41.8709ZM81.9433 42.6538C81.6335 42.9847 81.3665 43.4932 81.199 44.2452H86.1653C86.0383 43.4966 85.8029 42.9829 85.5184 42.6423L85.5142 42.6373C85.0996 42.135 84.566 41.8755 83.7952 41.8755C83.0346 41.8755 82.4427 42.1303 81.9433 42.6538Z" fill="white"/>
<path fill-rule="evenodd" clip-rule="evenodd" d="M72.5461 53.146C72.7491 53.0472 72.9387 52.9391 73.1149 52.8217L72.2262 51.2632C72.2262 51.2632 72.2263 51.2632 72.2262 51.2632C71.8343 51.4637 71.4105 51.6277 70.9548 51.7553C70.4991 51.8829 70.0024 51.9467 69.4646 51.9467C68.4803 51.9467 67.7739 51.7371 67.3456 51.3178C66.9263 50.8986 66.7167 50.2879 66.7167 49.4859V40.9276H71.4196L71.6931 39.1503H66.7167V35.6094L64.4199 35.8828V39.1503H61.1114V40.9276H64.4199V49.5132C64.4199 50.7892 64.8391 51.8328 65.6776 52.644C66.5162 53.4551 67.7101 53.8607 69.2596 53.8607C69.934 53.8607 70.6221 53.7696 71.3239 53.5873C71.5983 53.516 71.8567 53.4336 72.099 53.3401C72.2546 53.28 72.4037 53.2153 72.5461 53.146ZM63.2806 42.0669V49.5132C63.2806 51.0659 63.8031 52.4157 64.8855 53.4628C65.9988 54.5398 67.5143 55 69.2596 55C70.0376 55 70.822 54.8948 71.6103 54.69C72.4084 54.4827 73.1281 54.1821 73.7468 53.7696L74.6308 53.1803L72.6766 49.753L71.7073 50.2489C71.3879 50.4123 71.0356 50.5496 70.6476 50.6582C70.3044 50.7543 69.9124 50.8074 69.4646 50.8074C68.6066 50.8074 68.2641 50.6194 68.1464 50.5075C68.0087 50.367 67.856 50.0884 67.856 49.4859V42.0669H72.397L73.021 38.011H67.856V34.3265L63.2806 34.8711V38.011H59.9721V42.0669H63.2806Z" fill="white"/>
<path fill-rule="evenodd" clip-rule="evenodd" d="M52.0352 32.2144V49.9917C52.0352 50.4244 52.1458 50.5325 52.1874 50.5633C52.3994 50.6976 52.7361 50.8074 53.2747 50.8074C53.6328 50.8074 53.9604 50.7702 54.2607 50.7003C54.5954 50.6225 54.9336 50.5166 55.2757 50.3814L56.3628 49.9516L57.7325 53.6955L56.8097 54.1462C56.3277 54.3816 55.763 54.5731 55.1333 54.7311C54.4462 54.9153 53.6955 55 52.8919 55C51.3976 55 50.0755 54.5835 49.0334 53.6612L49.028 53.6563C47.9518 52.6915 47.4598 51.3798 47.4598 49.8687V36.3112H43.044V32.2144H52.0352ZM48.5991 35.1719V49.8687C48.5991 51.1173 48.9956 52.0971 49.7885 52.808C50.5814 53.5098 51.6159 53.8607 52.8919 53.8607C53.6211 53.8607 54.2727 53.7833 54.8469 53.6283C55.4302 53.4825 55.9178 53.3139 56.3098 53.1225L55.6945 51.4409C55.5525 51.497 55.4105 51.549 55.2685 51.5968C55.0186 51.6808 54.7687 51.7519 54.5188 51.81C54.1269 51.9012 53.7122 51.9467 53.2747 51.9467C52.5729 51.9467 51.9987 51.8009 51.5521 51.5092C51.1146 51.2085 50.8959 50.7026 50.8959 49.9917V33.3536H44.1832V35.1719H48.5991Z" fill="white"/>
<path fill-rule="evenodd" clip-rule="evenodd" d="M30.8179 48.301C30.7561 47.9481 30.7169 47.5683 30.7003 47.1617H40.3796C40.3978 46.9977 40.4115 46.8108 40.4206 46.6012C40.4297 46.3825 40.4343 46.1501 40.4343 45.904C40.4343 44.4457 40.1973 43.1925 39.7234 42.1443C39.2585 41.0871 38.5886 40.2759 37.7137 39.7108C36.8387 39.1366 35.7951 38.8495 34.5829 38.8495C33.3069 38.8495 32.1996 39.1731 31.2608 39.8202C30.322 40.4673 29.5929 41.356 29.0734 42.4861C28.5538 43.6163 28.2941 44.9105 28.2941 46.3688C28.2941 47.8544 28.5493 49.1623 29.0597 50.2925C29.5792 51.4135 30.3311 52.2885 31.3155 52.9174C32.2998 53.5463 33.4892 53.8607 34.8837 53.8607C35.786 53.8607 36.6655 53.7103 37.5223 53.4096C38.0064 53.2414 38.4605 53.0377 38.8848 52.7983C39.0167 52.7238 39.1458 52.6459 39.272 52.5646C39.4657 52.4397 39.6526 52.3066 39.8327 52.1655L38.7527 50.6479C38.1238 51.0763 37.5086 51.3999 36.9071 51.6186C36.3146 51.8374 35.6493 51.9467 34.911 51.9467C34.1728 51.9467 33.4892 51.7827 32.8603 51.4546C32.2315 51.1173 31.7256 50.5978 31.3428 49.896C31.1 49.445 30.925 48.9134 30.8179 48.301ZM31.9779 48.301C32.0671 48.7234 32.1928 49.0709 32.3445 49.3533C32.6329 49.8808 32.9855 50.2275 33.3932 50.4475C33.851 50.6852 34.3509 50.8074 34.911 50.8074C35.5369 50.8074 36.0657 50.7148 36.5124 50.5499L36.5177 50.5479C37.0153 50.367 37.5465 50.0911 38.1113 49.7063L39.0337 49.078L41.3917 52.3911L40.5355 53.0621C39.7559 53.6732 38.8736 54.146 37.8979 54.4851C36.9212 54.8278 35.9147 55 34.8837 55C33.3145 55 31.9025 54.6444 30.7021 53.8775C29.5239 53.1247 28.6313 52.0778 28.026 50.7715L28.0213 50.7614C27.4325 49.4577 27.1548 47.9846 27.1548 46.3688C27.1548 44.7743 27.4393 43.3133 28.0382 42.0103C28.6353 40.7114 29.4915 39.6561 30.6142 38.8822C31.7654 38.0886 33.1046 37.7103 34.5829 37.7103C35.9798 37.7103 37.2474 38.0432 38.3353 38.7561C39.4144 39.454 40.2201 40.4459 40.7639 41.6803C41.3182 42.9086 41.5736 44.328 41.5736 45.904C41.5736 46.164 41.5688 46.4123 41.5589 46.6486L41.5588 46.6507C41.5489 46.8794 41.5336 47.0924 41.5119 47.2876L41.3993 48.301H31.9779ZM31.9307 41.8709C32.6507 41.1144 33.5439 40.7362 34.6103 40.7362C35.6949 40.7362 36.5607 41.1281 37.2078 41.9119C37.6842 42.4822 37.9926 43.26 38.1332 44.2452C38.1835 44.5983 38.2123 44.978 38.2195 45.3845H30.7139C30.7397 44.9774 30.7855 44.5976 30.8515 44.2452C31.0425 43.2246 31.4023 42.4332 31.9307 41.8709ZM32.7585 42.6536C32.4486 42.9845 32.1815 43.4931 32.0141 44.2452H36.9803C36.8534 43.4966 36.618 42.9829 36.3335 42.6423L36.3293 42.6373C35.9146 42.1351 35.381 41.8755 34.6103 41.8755C33.8497 41.8755 33.2579 42.1303 32.7585 42.6536Z" fill="white"/>
</g>
<defs>
<clipPath id="clip0_1_2">
<rect width="125" height="55" fill="white"/>
</clipPath>
</defs>
</svg>
