<svg width="40" height="54" viewBox="0 0 40 54" fill="none" xmlns="http://www.w3.org/2000/svg">
<path d="M13.078 29.286H13.319L13.4692 29.0974L14.741 27.5H24.7979L26.5005 29.1455L26.6459 29.286H26.848H30.124H30.8125L30.5995 28.6313L22.5355 3.84531L22.4231 3.5H22.06H18.064H17.7009L17.5885 3.84531L9.52453 28.6313L9.31153 29.286H10H13.078ZM16.1329 25L19.9301 9.04015L22.8984 25H16.1329Z" fill="#3DCFB6" stroke="#3DCFB6"/>
<path d="M19.6918 45.8841L26.3989 29.8075L26.5456 29.4559L26.9235 29.504L30.0632 29.904L30.7178 29.9874L30.4604 30.595L22.159 50.195L22.0298 50.5H21.6986H17.6707H17.3305L17.2056 50.1835L9.5349 30.7435L9.27999 30.0975L9.97351 30.0607L12.9896 29.9007L13.3538 29.8814L13.4834 30.2223L15.4593 35.4174L19.6918 45.8841Z" fill="#3DCFB6" stroke="#3DCFB6"/>
</svg>
