<svg width="32" height="32" viewBox="0 0 32 32" fill="none" xmlns="http://www.w3.org/2000/svg">
<g clip-path="url(#clip0_3296_4052)">
<mask id="mask0_3296_4052" style="mask-type:alpha" maskUnits="userSpaceOnUse" x="0" y="0" width="32" height="32">
<rect width="32" height="32" fill="#D9D9D9"/>
</mask>
<g mask="url(#mask0_3296_4052)">
<path d="M5.33317 26.6666C4.59984 26.6666 3.97206 26.4055 3.44984 25.8833C2.92762 25.361 2.6665 24.7333 2.6665 23.9999V7.99992C2.6665 7.26659 2.92762 6.63881 3.44984 6.11659C3.97206 5.59436 4.59984 5.33325 5.33317 5.33325H26.6665C27.3998 5.33325 28.0276 5.59436 28.5498 6.11659C29.0721 6.63881 29.3332 7.26659 29.3332 7.99992V23.9999C29.3332 24.7333 29.0721 25.361 28.5498 25.8833C28.0276 26.4055 27.3998 26.6666 26.6665 26.6666H5.33317ZM15.9998 17.0999C16.1109 17.0999 16.2276 17.0833 16.3498 17.0499C16.4721 17.0166 16.5887 16.9666 16.6998 16.8999L26.1332 10.9999C26.3109 10.8888 26.4443 10.7499 26.5332 10.5833C26.6221 10.4166 26.6665 10.2333 26.6665 10.0333C26.6665 9.58881 26.4776 9.25547 26.0998 9.03325C25.7221 8.81103 25.3332 8.82214 24.9332 9.06659L15.9998 14.6666L7.0665 9.06659C6.6665 8.82214 6.27761 8.81659 5.89984 9.04992C5.52206 9.28325 5.33317 9.61103 5.33317 10.0333C5.33317 10.2555 5.37761 10.4499 5.4665 10.6166C5.55539 10.7833 5.68873 10.911 5.8665 10.9999L15.2998 16.8999C15.4109 16.9666 15.5276 17.0166 15.6498 17.0499C15.7721 17.0833 15.8887 17.0999 15.9998 17.0999Z" fill="#3DCFB6"/>
</g>
</g>
<defs>
<clipPath id="clip0_3296_4052">
<rect width="32" height="32" fill="white"/>
</clipPath>
</defs>
</svg>
