<svg width="33" height="32" viewBox="0 0 33 32" fill="none" xmlns="http://www.w3.org/2000/svg">
<mask id="mask0_3296_3890" style="mask-type:alpha" maskUnits="userSpaceOnUse" x="0" y="0" width="33" height="32">
<rect x="0.174316" width="32" height="32" fill="#D9D9D9"/>
</mask>
<g mask="url(#mask0_3296_3890)">
<path d="M16.1664 28.588C15.9035 28.588 15.6424 28.5435 15.383 28.4547C15.1239 28.3658 14.8944 28.225 14.6944 28.0323C13.5906 27.025 12.4906 25.9435 11.3944 24.788C10.2979 23.6324 9.31459 22.4342 8.44437 21.1933C7.57393 19.9526 6.86648 18.6898 6.32204 17.4047C5.77759 16.1193 5.50537 14.8508 5.50537 13.599C5.50537 10.2656 6.57759 7.61009 8.72204 5.63232C10.8665 3.65454 13.3498 2.66565 16.172 2.66565C18.9943 2.66565 21.4776 3.65454 23.622 5.63232C25.7665 7.61009 26.8387 10.2656 26.8387 13.599C26.8387 14.8508 26.5665 16.1193 26.022 17.4047C25.4776 18.6898 24.7702 19.9526 23.8997 21.1933C23.0295 22.4342 22.0462 23.6324 20.9497 24.788C19.8535 25.9435 18.7535 27.025 17.6497 28.0323C17.4497 28.225 17.2183 28.3658 16.9554 28.4547C16.6925 28.5435 16.4295 28.588 16.1664 28.588ZM16.174 15.7766C16.8467 15.7766 17.4219 15.5371 17.8997 15.058C18.3775 14.5791 18.6164 14.0032 18.6164 13.3303C18.6164 12.6576 18.3768 12.0824 17.8977 11.6046C17.4188 11.1269 16.8429 10.888 16.17 10.888C15.4974 10.888 14.9221 11.1275 14.4444 11.6066C13.9666 12.0855 13.7277 12.6614 13.7277 13.3343C13.7277 14.007 13.9673 14.5822 14.4464 15.06C14.9253 15.5378 15.5011 15.7766 16.174 15.7766Z" fill="#3DCFB6"/>
</g>
</svg>
