<svg width="60" height="60" viewBox="0 0 60 60" fill="none" xmlns="http://www.w3.org/2000/svg">
<g clip-path="url(#clip0_3390_3145)">
<path d="M42.722 11.2092L35.7193 18.282C33.6808 17.1657 31.3537 16.6533 29.0105 16.834C26.7617 17.0066 24.6207 17.8074 22.8195 19.1206C21.1827 18.6379 19.4786 18.3899 17.7798 18.3899H17.7097C14.9377 18.406 12.2547 19.0532 9.81445 20.2801C10.8607 17.8344 12.3464 15.599 14.1989 13.6765C16.7956 10.9881 20.0259 9.0089 23.5879 7.93032C27.15 6.85173 30.9277 6.70882 34.5598 7.51236C37.5125 8.16491 40.2871 9.42685 42.722 11.2092Z" fill="white"/>
<path d="M57.2906 41.2693C56.2822 44.5455 54.2571 47.4037 51.5148 49.4261C48.7725 51.4484 45.4586 52.527 42.0637 52.5H32.041V42.6714H42.0637C42.8619 42.6714 43.652 42.5123 44.3908 42.2023C45.1269 41.8949 45.7983 41.4419 46.3619 40.8729C46.9255 40.3039 47.3758 39.6271 47.6805 38.8802C47.9852 38.136 48.1443 37.3378 48.1443 36.5316C48.1443 35.7254 47.9852 34.9272 47.6805 34.183C47.3758 33.4388 46.9255 32.762 46.3619 32.1903C45.7983 31.6214 45.1269 31.1684 44.3908 30.861C43.652 30.5509 42.8619 30.3918 42.0637 30.3918V29.1676C42.0961 27.3124 41.7132 25.4734 40.942 23.7882C40.6023 23.0439 40.1897 22.3402 39.7124 21.6849C39.1354 20.8895 38.4586 20.1641 37.7036 19.5278C37.6712 19.5008 37.6362 19.4711 37.6038 19.4442L44.3396 12.6437L44.4366 12.5466C45.1 13.1399 45.7228 13.7708 46.3053 14.4368C48.5325 16.9769 50.1585 20.0077 51.0456 23.3055C53.8607 25.2254 55.9855 28.0108 57.11 31.2466C58.2344 34.4823 58.2964 37.9958 57.2906 41.2693Z" fill="white"/>
<path d="M30.3291 26.8055L23.2752 33.9269C22.868 33.0236 22.2532 32.2308 21.4766 31.6187C20.7028 31.0066 19.7914 30.594 18.826 30.4161C17.858 30.2381 16.8603 30.3001 15.9219 30.5967C14.9836 30.8907 14.1288 31.4138 13.4331 32.1148C12.7374 32.8159 12.2224 33.6788 11.9285 34.6279C11.6346 35.5744 11.5753 36.5802 11.7505 37.559C11.9285 38.5351 12.3357 39.4546 12.9424 40.2366C12.999 40.3067 13.0556 40.3795 13.1149 40.4469C13.6947 41.1318 14.4146 41.6792 15.229 42.0513H15.2263L8.19121 49.1565L8.17503 49.1726C7.53057 48.6711 6.92657 48.121 6.3711 47.5305C4.67503 45.7346 3.40769 43.5559 2.68504 41.1588C1.7278 37.9769 1.77634 34.5713 2.82795 31.4192C3.46701 29.502 4.45931 27.7358 5.74282 26.2069C6.56255 25.2227 7.50631 24.341 8.55253 23.5752C8.73319 23.443 8.91655 23.3136 9.10261 23.1896H9.1053C11.6588 21.4854 14.6519 20.5659 17.7232 20.5471C18.7613 20.5444 19.7941 20.6441 20.8079 20.8437H20.8106C21.6438 21.0081 22.4635 21.24 23.2617 21.5393C23.7686 21.7281 24.2675 21.9438 24.7528 22.1838C26.9397 23.2705 28.8488 24.8533 30.3291 26.8055Z" fill="white"/>
<path d="M29.884 42.6013V52.4299H17.723C14.9996 52.4434 12.3355 51.7423 9.98145 50.413L17.7203 42.6013H29.884Z" fill="white"/>
</g>
<defs>
<clipPath id="clip0_3390_3145">
<rect width="56" height="45.5" fill="white" transform="translate(2 7)"/>
</clipPath>
</defs>
</svg>
