<svg width="60" height="60" viewBox="0 0 60 60" fill="none" xmlns="http://www.w3.org/2000/svg">
<path d="M18.7345 49.8787C16.6012 48.1859 14.3255 46.5628 12.7705 44.2774C9.49836 40.247 6.979 35.5808 5.25666 30.6771C4.21562 27.4885 3.85909 24.0699 2.51706 21.0045C1.11316 18.7781 2.75763 16.3443 5.17491 15.6366C6.25113 15.4282 8.14346 14.4041 5.85922 15.1361C3.81133 16.6519 3.61314 13.7601 5.71309 13.577C7.14621 13.3848 7.67378 12.2012 7.18369 11.1356C5.64532 10.1235 10.914 9.01119 8.26303 7.50098C5.50139 4.49501 12.126 3.91636 10.4916 7.33021C10.1004 9.95533 15.1205 6.84908 13.9557 9.88052C15.1396 11.3363 18.3891 10.2119 18.3085 12.2542C20.0331 12.3738 20.625 13.8378 22.244 13.9502C23.9219 14.7147 26.9636 15.3171 27.5346 17.2247C25.8699 18.5543 22.0152 14.4782 21.83 18.1587C22.3329 23.5957 22.2047 29.1966 24.1765 34.3742C25.1091 37.5093 27.37 39.9772 29.4118 42.419C31.3654 44.8104 34.0117 46.4938 36.7088 47.9114C39.0748 49.0371 41.6257 49.7838 44.2042 50.2523C45.2501 49.4452 47.0965 46.4447 48.728 47.71C48.8055 49.1316 45.4897 50.6818 48.5721 50.5247C50.382 49.9738 51.6373 51.9368 53.1277 50.1662C54.5008 51.8071 58.835 49.1178 57.858 52.4718C56.5368 53.3318 54.6101 52.8121 53.2868 53.9951C51.105 52.8957 49.368 54.9788 46.9526 54.7154C44.2703 55.2001 41.5414 55.3958 38.8219 55.4C34.3604 55.0444 29.8044 54.8945 25.5601 53.3273C23.1692 52.6264 20.8359 51.2529 18.7345 49.8787ZM22.5024 51.5258C24.8371 52.5444 27.12 53.618 29.6787 53.9418C33.738 54.5114 37.9301 55.3876 42.004 54.5884C40.1602 53.7484 38.254 54.9156 36.4171 53.9878C34.2141 54.466 31.8499 53.8659 29.6102 53.5705C27.0633 52.4259 24.3148 51.6389 21.9298 50.1532C18.9495 49.055 23.4711 51.5616 24.2759 51.7646C26.1389 52.8315 22.2272 51.2177 21.6757 50.7742C20.1153 49.8911 19.9165 50.0757 21.5212 50.9725C21.8444 51.1634 22.1638 51.3633 22.5024 51.5258ZM18.0599 48.3584C20.3223 49.2038 18.05 46.7533 17.0132 46.8957C16.5539 46.0918 15.2584 45.5839 16.1723 45.152C14.5284 45.7278 14.4502 42.9625 13.6775 43.3576C11.9384 42.8036 13.0006 40.841 10.9291 39.6357C10.74 38.3658 8.87087 37.2642 8.27471 35.3487C8.01141 34.3679 6.16303 31.5515 7.29849 34.1726C8.26528 36.6959 9.96628 38.8567 11.3818 41.0152C12.481 43.0702 13.7789 45.218 15.7807 46.5C16.4555 47.153 17.107 48.1537 18.0599 48.3584ZM11.5425 41.1392C11.6214 40.7945 11.9562 41.8852 11.5425 41.1392V41.1392ZM20.7693 49.3719C20.0489 49.0867 21.2703 49.1455 20.7693 49.3719V49.3719ZM21.9975 49.8238C21.4368 50.1728 21.8703 49.1998 21.9975 49.8238V49.8238ZM23.5347 50.4708C22.4068 50.0275 24.2666 49.7677 23.5347 50.4708V50.4708ZM26.1695 51.9523C24.7461 51.702 26.6142 51.2891 26.1695 51.9523V51.9523ZM21.11 48.3941C19.6418 48.3838 22.2468 47.6522 21.11 48.3941V48.3941ZM22.2633 48.9742C21.8523 49.1499 22.231 48.582 22.2633 48.9742V48.9742ZM28.027 52.6036C28.9535 53.1935 33.4376 53.8966 30.6298 52.8455C30.1599 52.9454 25.4233 51.4938 28.027 52.6036ZM18.8769 45.414C17.4387 44.9797 18.7868 45.0206 18.8769 45.414V45.414ZM21.5601 46.9916C20.1107 46.6126 22.2584 46.5003 21.5601 46.9916V46.9916ZM23.8171 48.3878C22.1915 48.0048 24.8191 48.0066 23.8171 48.3878V48.3878ZM17.7851 44.2143C18.8723 45.0555 22.1698 44.3221 19.4501 43.7121C18.2122 43.0464 15.4224 42.5907 17.324 44.1135L17.785 44.2143L17.7851 44.2143ZM25.3457 48.8698C23.4465 48.4253 25.7986 48.0914 25.3457 48.8698V48.8698ZM23.0483 47.0277C25.7068 47.7865 20.8126 45.3315 22.3923 46.7485L22.7424 46.9084L23.0483 47.0277L23.0483 47.0277ZM27.6545 49.7136C25.3803 49.3634 30.1723 49.7379 27.6545 49.7136V49.7136ZM16.8163 42.7446C16.1949 42.7843 16.7179 42.2714 16.8163 42.7446V42.7446ZM31.9136 52.124C31.0919 52.7599 31.9807 51.2694 31.9136 52.124V52.124ZM21.113 45.3993C20.3263 45.3809 20.9608 44.9493 21.113 45.3993V45.3993ZM17.0551 42.4477C15.0761 41.8051 18.5005 42.3602 17.0551 42.4477V42.4477ZM12.2478 39.3128C10.6749 38.0561 12.0679 38.6137 12.2478 39.3128V39.3128ZM24.8679 47.393C24.6032 47.0884 24.7434 47.4596 24.8679 47.393V47.393ZM32.7231 52.2563C32.2953 52.4324 32.6979 51.7907 32.7231 52.2563V52.2563ZM24.1727 46.6688C22.9402 46.4872 24.3141 46.069 24.1727 46.6688V46.6688ZM18.3208 42.9271C16.5981 42.1936 19.3961 42.8109 18.3208 42.9271V42.9271ZM28.2199 49.1328C26.5866 48.8058 29.8957 48.463 28.2199 49.1328V49.1328ZM23.0708 45.6065C25.0022 45.8577 20.7728 44.2811 22.6471 45.4654L23.0708 45.6065L23.0708 45.6065ZM29.7832 49.7704C31.5863 48.6828 30.9918 52.3171 32.8423 50.0774C34.6676 48.7328 31.266 51.7397 33.5156 50.3171C35.1425 49.2193 37.5455 50.8375 39.0636 51.3655C40.1553 51.3114 41.2166 52.3179 42.3358 51.7056C44.4902 51.1201 38.1229 50.8373 39.792 49.7986C37.8207 50.3774 36.3642 49.1085 35.3942 47.8346C33.183 47.3195 30.6263 46.1789 29.5227 44.2047C29.0728 43.4634 30.1727 44.3091 29.1343 43.0974C27.8019 41.9018 27.1365 40.5446 26.2421 39.0912C25.1735 38.5161 25.049 36.8233 24.941 39.0344C24.9495 37.6389 23.6509 36.6997 23.3339 37.0901C23.3282 35.7462 24.7237 36.4198 23.7468 35.4255C23.5366 34.0325 22.8443 32.581 22.6362 31.0083C22.3129 30.2502 22.5907 28.6266 21.5328 30.3427C21.1474 32.1565 21.4049 28.1139 22.0042 29.447C22.7909 28.0867 21.7218 28.2467 21.678 28.4356C22.1905 27.2878 22.0023 25.6599 21.5443 26.2809C21.8173 25.0645 21.9757 21.804 21.1356 22.3818C21.6448 21.1098 22.1013 16.5612 19.8907 18.2954C18.9947 18.3081 17.4432 18.6235 16.7098 18.9915C19.0093 20.2703 16.4785 19.4533 15.5425 19.2501C15.4205 20.4334 14.4933 19.9216 13.335 19.9332C15.1851 20.1641 12.4341 21.8422 11.3728 21.1903C9.99447 21.855 12.5624 23.514 11.4005 24.0269C11.5433 24.8003 9.28883 23.7477 9.46589 25.5336C8.12777 24.9657 9.28164 27.6521 9.95109 26.7435C12.227 27.3649 11.5533 28.7817 11.6112 30.1276C11.2404 30.9118 9.78044 28.2842 11.2861 28.4059C10.0982 26.4592 9.97212 27.7023 8.98508 28.6066C8.75545 28.6723 11.5028 29.8934 9.77869 30.4972C11.2956 30.7333 11.3387 32.0725 11.6475 32.9199C12.5592 33.878 12.3726 31.8621 13.4635 33.0134C12.7732 31.9877 9.80697 30.1234 12.1952 30.7213C12.1824 29.689 11.7632 28.8565 12.4949 28.8767C13.2195 27.5528 11.7361 32.1408 13.3693 30.4583C13.8214 30.2591 13.9334 29.1327 14.746 30.5646C15.9264 31.7361 15.1724 32.585 13.5074 31.5123C13.8053 32.5318 15.7347 32.8962 15.3721 34.4905C15.7565 35.8927 16.2943 35.3762 16.763 35.2951C17.1308 36.6576 17.3396 35.6557 17.357 35.0074C19.0407 35.371 18.6463 36.3751 19.1731 37.0767C20.3334 37.605 17.5125 33.4954 19.5044 35.8409C21.6 37.7498 20.2903 38.5466 18.4097 38.2408C19.6 38.1438 19.9838 39.8643 21.4727 39.8039C22.8304 40.4555 23.7496 42.9583 21.4093 41.9164C20.5977 41.1781 17.7253 40.2672 20.0714 41.6716C22.2382 42.684 23.9591 43.2896 26.049 44.5603C27.5446 45.6375 28.1907 46.8713 28.7576 47.1155C27.5006 47.7212 24.9695 46.6318 26.849 46.2979C25.6767 46.0825 24.3581 45.4844 25.481 46.958C26.4358 47.7623 28.8637 47.6771 29.299 47.7682C28.93 48.5883 28.2969 48.6535 29.3141 48.7171C28.1793 49.3273 29.678 49.4217 29.7831 49.7704H29.7832ZM27.4626 43.1589C26.7721 42.4304 26.5936 41.066 27.3399 42.2532C27.7227 42.4083 28.566 44.483 27.4626 43.1589H27.4626ZM35.0199 48.0021C35.0324 48.3322 35.4505 47.9739 35.0199 48.0021V48.0021ZM26.3724 41.3727C26.3459 40.2714 26.6221 42.2222 26.3724 41.3727V41.3727ZM25.6213 40.3532C24.7528 38.6603 26.7161 40.8326 25.6213 40.3532V40.3532ZM16.5191 34.0151C16.7701 34.8954 17.0293 33.8778 16.5191 34.0151V34.0151ZM23.7633 37.9765C24.0766 36.7894 24.1315 38.9726 23.7633 37.9765V37.9765ZM18.6455 34.3863C18.2847 33.7313 19.4002 35.0007 18.6455 34.3863V34.3863ZM23.0376 35.8068C22.2149 33.9471 23.6201 34.791 23.2197 36.1116L23.0376 35.8068ZM15.4634 30.7106C15.0955 30.1005 14.4871 28.3104 14.683 27.7639C14.8602 28.6539 16.559 31.5941 15.5163 28.9818C14.364 26.792 16.8937 29.6926 17.1539 30.2388C17.2751 30.7821 16.443 30.0903 17.0068 31.3643C15.9786 29.9138 16.3998 32.1655 15.4634 30.7106ZM13.1225 29.0833C13.2189 27.6647 13.6584 30.056 13.1225 29.0833V29.0833ZM14.1754 29.449C14.6779 28.3782 15.0274 30.9417 14.1754 29.449V29.449ZM11.6426 27.4722C10.771 26.5985 10.1404 25.793 11.6833 26.9299C12.2779 26.9533 10.3624 25.0984 11.8265 26.3409C13.3661 26.6241 12.5867 28.8876 11.6426 27.4722ZM12.9731 27.4371C13.2417 27.9352 13.4792 26.9311 12.9731 27.4371V27.4371ZM13.7917 27.7019C13.0244 26.2509 14.723 28.3102 13.7917 27.7019V27.7019ZM12.1643 26.1328C9.6307 23.858 15.3478 27.3222 12.5782 26.5545L12.1642 26.1328L12.1643 26.1328ZM19.4233 30.3879C18.3269 29.7247 19.1327 25.7189 19.5066 28.4586C20.5725 28.1107 19.4478 29.8734 20.2427 29.8571C20.1175 30.9693 19.7618 31.3692 19.4233 30.3879ZM22.1082 31.9888C22.2158 30.7816 22.3345 32.8142 22.1082 31.9888V31.9888ZM21.6419 31.5239C21.6543 32.1313 21.7626 31.0082 21.6419 31.5239V31.5239ZM12.6613 25.3853C11.0336 23.1197 17.3916 27.677 13.7037 25.9599C13.3184 25.8582 12.8547 25.8219 12.6613 25.3853ZM17.8316 28.1509C17.6775 26.2432 18.1755 28.4671 17.8315 28.1509L17.8316 28.1509ZM21.757 30.6914C21.7797 31.4103 22.0608 29.6048 21.757 30.6914V30.6914ZM12.9106 24.5206C13.878 24.3119 16.9195 26.2346 14.1264 25.0698C13.816 24.7232 13.1544 24.8807 12.9106 24.5206ZM21.2177 28.6977C21.3211 26.747 21.7952 27.5325 21.2213 28.9769L21.2177 28.6977L21.2177 28.6977H21.2177ZM13.6307 23.8418C14.0248 23.2585 12.5844 21.2046 13.8383 23.1051C14.3801 23.5394 15.4071 23.8327 14.5004 24.0154C15.9264 25.2846 14.1526 24.3594 13.6307 23.8418ZM20.8068 28.0884C21.047 29.3902 21.0791 25.8663 20.8068 28.0884V28.0884ZM12.8075 21.7895C12.9665 22.1942 13.1086 21.6597 12.8075 21.7895V21.7895ZM14.6793 22.9135C15.1611 21.8937 15.568 24.0508 14.6793 22.9135V22.9135ZM19.9593 25.8768C19.9542 25.4851 20.0589 26.4465 19.9593 25.8768V25.8768ZM19.6535 25.1936C18.9206 23.3696 20.3351 26.1594 19.6535 25.1936V25.1936ZM19.2035 23.9977C19.0805 23.244 19.6216 24.9446 19.2035 23.9977L19.2035 23.9977ZM19.9358 22.7967C19.4329 21.9026 20.5709 18.8567 20.6978 20.7458C20.1671 22.2177 20.5447 23.0411 20.915 21.0669C21.5988 19.5131 20.7673 24.1329 19.9358 22.7967L19.9358 22.7967ZM20.6884 18.2669C20.737 18.5941 20.9076 17.9953 20.6884 18.2669V18.2669ZM19.4316 43.2512C19.1335 42.9887 19.469 43.4182 19.4316 43.2512V43.2512ZM22.0206 44.5725C23.4608 44.9453 23.4534 44.3465 22.1518 44.1685C21.4517 43.5115 19.2427 42.8146 21.2199 44.087C21.3508 44.4217 21.7646 44.4139 22.0206 44.5725ZM16.9074 41.1462C17.7008 41.7431 19.8959 42.8379 18.0377 41.3734C18.6642 40.639 16.8385 40.2481 17.4441 39.7569C15.9038 38.806 16.229 38.8906 17.3082 38.9205C15.4569 38.0856 17.5754 38.1481 17.4756 37.7203C16.7618 37.5781 13.93 36.4504 15.596 37.813C13.9024 36.9418 15.1924 38.1375 14.6805 38.0111C12.9488 37.5347 16.2227 39.3417 14.4055 38.8931C15.399 39.6874 17.0796 40.9277 14.8255 39.7337C14.5285 40.165 16.4386 40.8188 16.9074 41.1462ZM19.6152 42.7156C18.001 41.4079 22.9076 43.786 19.6152 42.7156V42.7156ZM33.4765 51.1874C33.0266 51.7496 33.519 50.5284 33.4765 51.1874V51.1874ZM34.9012 51.7924C35.6608 51.0498 34.9323 52.9752 36.1599 51.6106C36.1732 50.6336 36.1221 50.0566 34.7492 51.2433C34.3707 51.4551 34.2017 52.3555 34.9012 51.7924ZM12.2859 37.4633C10.6507 36.5429 12.0526 36.5381 12.2859 37.4633V37.4633ZM13.8072 38.4691C11.7916 37.6136 13.2423 37.5241 13.8072 38.4691V38.4691ZM22.462 43.7349C23.3069 44.4921 26.3428 44.2905 23.4882 43.8281C23.0655 43.1974 20.8036 43.3492 22.462 43.7349ZM34.3593 51.1478C33.0993 51.639 35.6598 50.0469 34.3593 51.1478V51.1478ZM37.0641 53.023C36.5035 53.1777 37.0722 52.6697 37.0641 53.023V53.023ZM37.0682 52.5284C38.5084 50.989 35.6728 52.6195 37.0682 52.5284H37.0682ZM8.54421 34.303C7.31676 32.5361 7.7812 31.7419 6.59752 30.2992C6.37344 29.196 4.56688 26.6925 5.66313 29.3447C6.66723 30.8959 6.9656 33.2976 8.54421 34.303ZM36.6165 52.039C35.5289 51.2864 39.266 50.3113 36.6165 52.039V52.039ZM38.6391 52.8384C37.7998 52.598 39.9659 51.6891 38.6391 52.8384V52.8384ZM11.835 35.5103C10.8543 35.4374 12.2147 34.9404 11.835 35.5103V35.5103ZM38.2168 52.2926C39.5014 51.457 37.9208 51.5853 37.9839 52.3695L38.2168 52.2926H38.2168ZM20.7822 41.2059C20.1038 41.2538 20.738 40.6416 20.7822 41.2059V41.2059ZM21.8596 41.8314C21.3332 41.9411 21.5172 41.1329 21.8596 41.8314V41.8314ZM40.2781 52.8573C41.9239 51.6595 39.2805 52.628 39.9327 53.0843L40.2781 52.8573ZM39.6479 52.55C38.2324 53.0523 40.9886 51.4166 39.6479 52.55V52.55ZM42.8679 54.7134C41.7743 54.5167 43.7681 54.1051 42.8679 54.7134V54.7134ZM12.6606 35.0993C13.8672 35.3721 17.4826 38.0974 15.3497 35.2878C14.2573 34.9616 14.9124 32.2676 13.7982 32.7444C14.5461 34.0049 14.4135 34.5414 12.8433 33.7467C10.8697 32.7748 11.7342 34.2284 12.1199 34.629C11.5943 34.7495 12.8151 35.0892 12.6606 35.0993ZM7.16311 30.7192C7.37914 29.8178 5.17404 25.7602 6.12183 28.686C6.46396 29.2989 6.42917 30.4605 7.16311 30.7192ZM17.2533 36.9953C16.632 36.471 17.2238 36.9211 17.2533 36.9953V36.9953ZM18.7834 37.3545C17.0921 36.9668 18.7826 36.3996 18.7834 37.3545V37.3545ZM32.0427 45.7876C31.7898 45.1352 31.0431 45.7724 32.0428 45.7876L32.0427 45.7876ZM32.6795 46.2568C32.3121 46.3273 32.5855 45.8917 32.6795 46.2568V46.2568ZM37.935 49.5966C37.3043 49.5485 38.4405 49.2198 37.935 49.5966V49.5966ZM9.90913 31.4265C8.36009 31.0238 11.3549 30.8617 9.90913 31.4265V31.4265ZM30.8755 44.7527C29.9538 44.987 30.8594 43.8084 30.8755 44.7527V44.7527ZM9.33791 30.0835C8.47878 29.875 10.2666 29.767 9.33791 30.0835V30.0835ZM12.0335 31.4009C11.7484 31.5183 12.0167 31.0905 12.0335 31.4009V31.4009ZM44.9117 51.7413C46.1059 51.497 48.8273 52.3546 49.2671 51.4219C47.8169 51.3863 44.2497 50.3896 44.0809 51.6597L44.3983 51.7102L44.9117 51.7413ZM12.8902 31.6187C12.1506 31.5829 12.911 30.6618 12.8902 31.6187V31.6187ZM5.80284 26.6586C4.57866 26.3827 5.48097 24.8355 5.80284 26.6586V26.6586ZM7.49292 27.0872C5.94598 26.5605 7.51368 26.5018 7.49292 27.0872V27.0872ZM8.45875 27.5658C8.17957 27.3376 8.24023 27.854 8.45875 27.5658V27.5658ZM14.5359 31.4989C13.8586 31.3025 14.822 31.2338 14.5359 31.4989V31.4989ZM7.81546 26.4865C5.85797 26.2801 7.65211 25.1095 7.81546 26.4865V26.4865ZM4.35052 24.2182C4.01286 24.458 4.30124 23.5827 4.35052 24.2182V24.2182ZM4.86592 23.8255C4.42342 23.9214 4.78184 23.072 4.86592 23.8255V23.8255ZM7.71362 25.5405C8.91779 25.0633 5.52024 24.5534 7.46758 25.4503L7.71362 25.5405ZM45.8257 49.2908C44.8461 49.0704 46.5964 48.5779 45.8257 49.2908V49.2908ZM50.4299 51.6987C49.6522 51.82 50.7388 50.7769 50.4299 51.6987V51.6987ZM8.00465 24.0346C7.05 24.2117 8.13151 23.143 8.00465 24.0346V24.0346ZM3.95306 21.296C3.73541 20.0372 3.76518 17.8277 5.84702 18.5744C3.06811 19.131 7.77034 22.059 7.17653 19.7472C8.345 19.8049 9.46232 19.0505 8.84913 20.1954C11.1513 19.9389 12.7474 17.9248 14.9712 18.207C16.7035 17.9758 18.5974 17.8004 20.4641 17.0969C21.9989 16.9853 23.4763 15.3182 22.6351 14.3301C20.5421 14.1514 18.3512 14.4156 16.0378 14.8795C13.4743 15.4172 11.1458 16.4387 8.55936 16.8771C6.03827 17.2188 9.06646 17.8185 8.34431 17.9521C7.02877 18.4126 9.9132 18.7232 8.17376 19.2086C7.09952 19.0026 5.98137 18.6302 6.44024 17.4881C4.02525 17.8042 1.90317 18.8154 3.81115 21.2948L3.95306 21.2959L3.95306 21.2959V21.296ZM9.7723 18.3059C10.3385 16.2015 12.8059 20.0377 10.7004 18.5855C10.4489 18.3956 10.0353 18.2407 9.7723 18.3059ZM9.88246 17.2856C10.3169 17.63 10.6997 16.6714 9.88246 17.2856V17.2856ZM10.9202 17.3023C10.9939 16.3339 13.2956 17.8149 11.2997 17.6509L10.9202 17.3023ZM12.3396 16.7265C12.4886 17.27 12.858 16.1154 12.3396 16.7265V16.7265ZM12.7028 16.4811C13.5659 15.4348 17.5908 15.8134 14.6447 16.3791C13.855 15.7793 13.2497 16.7328 12.7028 16.4811ZM17.9553 15.6643C17.824 12.8062 20.5649 16.6799 17.9553 15.6643V15.6643ZM19.4457 15.656C19.9906 14.2155 21.5603 15.078 19.6979 15.3666C19.7383 15.5199 19.6433 16.1102 19.4457 15.656ZM7.41695 23.2953C5.68856 22.4226 9.04502 22.2894 7.41695 23.2953V23.2953ZM8.62074 23.6327C7.38043 23.3844 9.19156 23.0204 8.62074 23.6327V23.6327ZM5.0738 21.0931C3.97294 20.819 6.00409 20.3721 5.0738 21.0931V21.0931ZM53.1476 51.4352C52.4365 51.8122 53.1745 50.5987 53.1476 51.4352V51.4352ZM48.2627 48.072C47.6349 48.156 48.4016 47.109 48.2627 48.072V48.072ZM54.4908 51.7595C55.7915 51.764 58.4318 51.352 55.6018 51.3533C55.1577 51.4232 53.0141 51.4082 54.4908 51.7595L54.4908 51.7595ZM9.67962 23.0425C10.7323 22.9695 11.3265 21.871 9.47604 21.9341C6.60808 21.6346 12.0064 22.9249 9.10812 22.5559C8.71869 22.8161 9.657 23.1144 9.67962 23.0425ZM10.6067 23.5159C10.2812 23.8781 10.4968 22.834 10.6067 23.5159V23.5159ZM11.7064 20.5574C11.0743 20.4046 12.1632 19.9858 11.7064 20.5574V20.5574ZM8.20561 14.6537C10.0843 14.0089 12.6533 13.2843 13.5403 14.9711C12.6376 13.875 13.176 12.7958 14.0287 14.3985C15.2343 16.0201 15.8379 13.661 15.0537 13.1171C15.9474 14.2373 16.9638 14.7666 15.652 13.1879C17.0775 11.458 12.7979 13.4144 11.8252 13.3947C11.3572 13.6066 6.99342 14.5175 8.20561 14.6537ZM9.30661 12.5263C10.378 11.7105 13.0121 13.0116 11.3218 11.7155C11.1566 11.5682 7.6201 12.6984 9.30661 12.5263ZM13.2127 12.689C14.4666 12.7213 12.6718 10.9895 14.166 11.7742C13.9206 10.9654 12.4263 10.814 11.6958 10.4909C11.2826 11.2303 12.5368 12.699 13.2127 12.689ZM9.99152 9.11181C9.23125 9.4126 10.4253 8.51852 9.99152 9.11181V9.11181ZM11.588 9.49732C13.6087 9.22692 11.0729 8.61937 11.1808 9.47559L11.588 9.49732V9.49732V9.49732ZM8.60707 7.14411C7.18425 5.27024 11.2829 7.4591 9.83729 5.4971C8.62059 4.51963 7.45141 6.59708 8.60707 7.14411ZM26.8667 17.0666C27.5192 15.8995 24.1724 15.4934 26.427 16.653C26.6346 16.723 26.5876 17.1474 26.8667 17.0666Z" fill="white"/>
</svg>
