<svg width="60" height="60" viewBox="0 0 60 60" fill="none" xmlns="http://www.w3.org/2000/svg">
<path d="M50.36 2H10.04C7.2568 2 5 4.2568 5 7.04V52.96C5 55.7432 7.2568 58 10.04 58H50.36C53.1432 58 55.4 55.7432 55.4 52.96V7.04C55.4 4.2568 53.1432 2 50.36 2ZM17.6 49.6V38.4L23.9 44L17.6 49.6ZM37.2 49.6V32.877C37.1727 31.5701 36.5434 30 33.7 30C28.0062 30 21.6194 32.8637 21.5557 32.8924L17.6 34.6844V10.4H23.2V26.2977C25.9958 25.3877 29.9039 24.4 33.7 24.4C37.1615 24.4 39.2335 25.7608 40.3619 26.9025C42.7706 29.3385 42.8035 32.4416 42.8002 32.8V49.6H37.2ZM38.6 19.5H33C35.2008 16.6125 36.5826 13.5738 37.2 10.4H42.8C42.422 13.5808 41.1326 16.63 38.6 19.5Z" fill="white"/>
</svg>
