<svg width="60" height="60" viewBox="0 0 60 60" fill="none" xmlns="http://www.w3.org/2000/svg">
<g clip-path="url(#clip0_3390_3121)">
<path d="M52.9508 46.4452C52.7538 46.0846 52.5131 45.6687 52.1675 45.3032C51.649 44.759 51.3308 44.0703 51.1354 43.0696C50.9303 42.0121 50.5459 40.7694 49.4476 39.923C50.1502 36.7748 49.6947 33.6396 48.0408 30.1438C46.7503 27.4195 44.909 25.1177 43.1275 22.8922L42.7576 22.4292C41.136 20.397 40.4173 18.2625 40.4964 15.7104C40.5643 13.5467 40.3931 11.3114 39.9844 9.06802C39.2948 5.28141 37.0449 2.84147 33.6466 2.19981C32.9424 2.06823 32.1688 2 31.3499 2C30.699 2 29.9964 2.04224 29.2599 2.12671C25.453 2.56044 22.8171 5.03124 22.2082 8.73663C21.89 10.6811 21.806 12.7897 21.9594 15.007C22.2179 18.7498 21.3602 21.6755 19.2557 24.2145C18.1283 25.5758 17.0575 27.132 15.8833 29.1122C14.3586 31.6838 12.6562 35.1601 12.9292 39.3447C12.8064 39.4958 12.6901 39.6452 12.5755 39.7931C11.9068 40.6459 11.3786 41.3184 10.4774 41.5832C7.97392 42.3142 6.93861 44.067 7.39731 46.7896C7.57982 47.8731 7.54752 48.7211 7.29556 49.5398C6.85786 50.9547 6.90631 52.087 7.44092 53.0032C7.98684 53.9356 8.98823 54.5448 10.5016 54.8648C10.8101 54.9298 11.1202 54.9785 11.4222 55.0126C13.7416 55.2677 15.5134 55.6007 17.1786 56.4665C18.2592 57.0269 19.485 57.2332 20.3136 57.3372C20.7012 57.3876 21.0776 57.4119 21.4313 57.4119C23.4211 57.4119 24.9701 56.6436 26.0393 55.1279C26.4156 55.0873 26.792 55.0435 27.1683 55.0012C28.735 54.8242 30.355 54.639 31.933 54.5643C32.0105 54.5594 32.0896 54.5578 32.1688 54.5578C32.6937 54.5578 33.2477 54.6325 33.8356 54.7121C34.2701 54.7706 34.7191 54.8307 35.1794 54.8648C36.1356 56.8596 37.9171 58 40.091 58C40.322 58 40.5594 57.987 40.7969 57.961C42.8029 57.745 44.5892 56.7589 46.1074 55.0305C46.9392 54.0834 47.9875 53.3037 49.3103 52.649L49.4185 52.5954C50.2002 52.2088 51.0094 51.8076 51.7814 51.3056C53.5759 50.1344 54.0023 48.3621 52.9508 46.4452ZM51.0772 50.214C50.3375 50.698 49.5332 51.0895 48.7385 51.4843C47.3737 52.1601 46.1607 53.008 45.1384 54.1711C43.9528 55.5194 42.4976 56.4698 40.658 56.6696C38.6907 56.8807 37.1063 56.0019 36.289 54.1809C36.0887 53.7374 35.8674 53.6042 35.399 53.5766C34.22 53.5067 33.0393 53.2095 31.8716 53.2663C29.7315 53.3687 27.6011 53.6546 25.4708 53.8836C25.3448 53.8966 25.2027 54.0461 25.1251 54.1679C24.0188 55.9093 22.339 56.2846 20.4751 56.049C19.5545 55.9321 18.5854 55.7339 17.7714 55.3115C15.8074 54.2914 13.7061 53.9567 11.5628 53.7212C11.2963 53.6903 11.0298 53.6481 10.7681 53.5928C8.5796 53.1315 7.86893 52.0593 8.52953 49.9248C8.88001 48.7877 8.86063 47.7042 8.67166 46.5736C8.33248 44.5625 8.90747 43.3945 10.8376 42.8308C12.4656 42.3548 13.1876 41.0293 14.1518 39.8986C14.2391 39.7963 14.2439 39.5916 14.2326 39.4389C13.9419 35.8684 15.2372 32.7396 16.9929 29.7783C17.9684 28.1327 19.0328 26.5147 20.249 25.0462C22.7105 22.0751 23.5116 18.7092 23.2483 14.9177C23.111 12.9391 23.1627 10.9004 23.4841 8.94781C24.0058 5.76062 26.2073 3.78203 29.4053 3.41815C30.7248 3.26708 32.1138 3.23296 33.4092 3.47826C36.5571 4.07119 38.1723 6.32756 38.7133 9.30195C39.0929 11.3894 39.2722 13.5515 39.2059 15.6698C39.1155 18.5695 39.9796 21.024 41.7498 23.2431C43.6347 25.605 45.5631 27.9345 46.873 30.7026C48.3541 33.8313 49.005 37.0412 47.9455 40.5549C49.2311 41.0634 49.6398 42.1485 49.8675 43.3198C50.0807 44.4065 50.4586 45.3861 51.2323 46.2015C51.4697 46.4517 51.6522 46.7652 51.8202 47.0723C52.539 48.3832 52.3225 49.4034 51.0772 50.214Z" fill="white"/>
<path d="M29.9237 13.3144C30.0126 12.8709 30.166 12.4225 30.3792 12.0262C31.379 10.1662 33.5594 10.1304 34.6416 11.9368C35.504 13.3777 35.3926 15.2231 34.3201 16.5324C33.8937 16.3554 33.5029 16.1929 33.2348 16.0808C33.301 15.2962 33.4431 14.6091 33.3931 13.9349C33.3494 13.3339 33.0506 12.7198 32.3287 12.7166C31.6552 12.7117 31.3983 13.2949 31.2417 13.8537C31.1415 14.2095 31.1448 14.5944 31.1028 14.9681C29.8349 14.713 29.6831 14.523 29.9237 13.3144Z" fill="white"/>
<path d="M24.9928 11.5649C25.5678 11.0158 26.2736 10.9589 26.8793 11.4641C27.7805 12.2179 28.0842 13.251 27.9517 14.3654C27.9162 14.6546 27.3929 14.8836 26.9665 15.2491C26.8583 14.5929 26.8421 13.537 26.0087 13.3177C25.3853 13.1552 25.2706 14.1396 25.2625 14.5392C25.2577 14.7732 25.6873 16.1637 25.5694 16.2579C25.5532 16.2709 25.3756 16.4171 25.2044 16.5584C23.8929 15.4522 23.7976 12.7085 24.9944 11.5649H24.9928Z" fill="white"/>
<path d="M34.0132 16.7924C32.9165 16.2953 31.8295 15.7706 30.7199 15.3044C30.1837 15.0786 29.6055 14.9567 29.045 14.7894C28.0485 14.8625 27.2635 15.2865 26.5464 15.8973C26.057 16.3164 25.5612 16.7307 25.0475 17.1189C23.7748 18.0806 23.7587 18.9399 25.0282 19.9455C25.5741 20.3808 26.1652 20.7593 26.695 21.2125C27.9871 22.3204 29.2615 22.4991 30.7765 21.7275C31.731 21.2418 32.6856 20.7528 33.6272 20.2427C33.9308 20.077 34.2216 19.8691 34.4751 19.6319C35.6316 18.5484 35.4458 17.4438 34.0132 16.7924ZM28.2988 20.5465C26.7499 20.4182 25.6548 19.4744 24.6987 18.3632C24.7471 18.2934 24.7956 18.2219 24.8457 18.1521C25.0879 18.3649 25.3334 18.5744 25.5741 18.7905C27.417 20.4539 28.8641 20.6586 31.0817 19.5329C31.752 19.1933 32.3851 18.7824 33.0457 18.425C33.3526 18.2576 33.6869 18.1423 34.0084 18.0042C34.0391 18.0871 34.0714 18.1699 34.102 18.2528C32.2188 19.1479 30.6085 20.7382 28.2988 20.5465Z" fill="white"/>
<path d="M24.5405 53.8804C23.8331 55.1426 22.5959 55.396 20.8128 55.5016C20.1199 55.3083 18.9085 55.1572 17.8764 54.6406C15.9254 53.666 13.8693 53.2907 11.7486 53.086C11.5338 53.0665 11.3222 53.0324 11.1106 52.9918C9.04646 52.5922 8.55868 51.8855 9.22089 49.8956C9.62791 48.6691 9.46962 47.5011 9.30165 46.299C9.08199 44.7233 9.49385 43.9322 10.9992 43.4497C12.2977 43.0322 13.2264 42.2557 14.0082 41.1576C15.3326 39.2992 16.8395 39.2424 18.2738 41.0212C18.978 41.8935 19.4706 42.9348 20.0747 43.8916C20.963 45.3 21.8513 46.7084 22.7655 48.1006C23.2387 48.8202 23.7879 49.4911 24.2627 50.2107C25.0299 51.3738 25.248 52.6166 24.5405 53.8804Z" fill="white"/>
<path d="M36.4346 49.1337C33.2204 51.2487 29.8399 52.0561 26.1186 50.5047C24.7974 49.9524 24.1465 48.8397 23.3971 47.7756C23.4617 47.7058 23.4908 47.6441 23.5328 47.6327C25.0849 47.2184 25.542 46.3364 24.6731 44.9491C24.027 43.9175 23.1193 43.0338 22.2455 42.168C21.7174 41.6433 21.0439 41.2599 20.4139 40.8473C17.8685 39.1725 17.0431 37.2995 17.5891 34.2813C18.0187 31.9014 19.1784 29.8449 20.4123 27.8256C20.4786 27.8565 20.5432 27.8858 20.6078 27.9166C20.2928 28.5534 19.9859 29.1951 19.6613 29.827C18.7051 31.6805 18.0042 33.6087 18.29 35.7335C18.4015 36.5717 18.7617 37.3758 19.0088 38.1962C19.0863 38.1718 19.1654 38.1475 19.243 38.1215C19.4174 37.0932 19.482 36.0308 19.7905 35.0447C20.296 33.4268 20.9017 31.8332 21.5736 30.277C22.7494 27.5495 24.0416 24.8708 24.6117 21.924C24.707 21.4253 24.7732 20.9217 24.8798 20.2557C25.471 20.704 25.9733 21.0484 26.4336 21.4431C27.8791 22.6859 29.2407 22.91 30.8914 22.0507C32.3563 21.2888 33.7841 20.4571 35.1957 19.6725C35.8143 21.4058 36.4023 23.2902 37.1565 25.1031C38.0788 27.3204 39.1803 29.4599 40.1252 31.6675C40.6129 32.8046 40.9618 34.0051 41.3139 35.1942C41.5836 36.1071 41.5433 36.1185 42.6642 36.2517C43.6736 32.496 42.1554 29.5801 39.8813 26.8315C39.9976 26.8916 40.1397 26.9273 40.2253 27.0183C42.6254 29.5752 44.1905 32.47 43.7754 36.1315C43.7269 36.5685 43.8787 36.7358 44.2309 36.9291C44.8882 37.2881 45.573 37.6488 46.1206 38.1491C46.5098 38.5032 46.7424 39.0669 46.9427 39.5786C47.0218 39.7849 46.8264 40.1001 46.6826 40.3405C46.0043 38.5065 43.8852 37.0331 41.8921 37.0445C40.9909 37.0493 40.4756 37.4554 40.1914 38.3554C40.1219 38.5763 40.0509 38.8882 39.8861 38.9711C38.1773 39.8369 37.872 41.4467 37.6362 43.1134C37.3891 44.8743 37.1307 46.6336 36.8448 48.3881C36.8012 48.6561 36.6461 48.994 36.4346 49.1337Z" fill="white"/>
<path d="M44.691 40.2885C44.1289 41.0666 43.3488 41.5929 42.4007 41.6124C41.9695 41.6205 41.3024 41.3184 41.1409 40.9707C40.8082 40.2495 40.6289 39.4064 40.6015 38.6055C40.5207 36.2696 45.9686 38.5194 44.691 40.2885Z" fill="white"/>
<path d="M50.6604 49.7104C50.0273 50.1132 49.3489 50.4511 48.6706 50.7728C47.1459 51.4973 45.7811 52.4135 44.6683 53.7179C43.7799 54.7592 42.6687 55.5129 41.3281 55.8866C38.5146 56.6696 36.2663 54.691 36.6959 51.7929C36.775 51.2585 36.8639 50.7159 37.0383 50.2107C37.82 47.9413 38.1318 45.5972 38.2901 43.2142C38.3385 42.4994 38.5178 41.7635 38.7907 41.1007C39.0104 40.5647 39.461 40.1261 39.8858 39.5364C40.1975 40.3973 40.3445 41.0098 40.6288 41.5507C41.1763 42.5952 42.0856 43.0241 43.1936 42.657C43.9931 42.3938 44.7829 41.9877 45.4613 41.4857C46.6097 40.6378 48.2345 40.9529 48.8418 42.2525C48.866 42.3012 48.9015 42.3467 48.9129 42.3987C49.2827 44.2506 50.0434 45.8945 51.208 47.4053C51.9332 48.3458 51.678 49.0638 50.6604 49.7104Z" fill="white"/>
</g>
<defs>
<clipPath id="clip0_3390_3121">
<rect width="46.5161" height="56" fill="white" transform="translate(7 2)"/>
</clipPath>
</defs>
</svg>
