<svg width="60" height="60" viewBox="0 0 60 60" fill="none" xmlns="http://www.w3.org/2000/svg">
<path d="M4.33589 25.1086C7.2865 26.5365 23.7607 33.2415 26.3425 34.4831C28.9243 35.7248 30.7684 35.7248 34.0878 34.0486C37.3458 32.3102 52.8364 25.9157 55.787 24.3636C57.3238 23.5565 58 22.9357 58 22.3769V16.7273C58 16.1686 57.2624 15.6719 55.787 15.1132L34.5796 6.79401C31.629 5.67651 30.461 5.7386 27.0187 6.98026C23.5148 8.22193 7.16356 14.7407 4.27442 15.8582C2.86059 16.4169 2.06147 16.9757 2.06147 17.5344H2V23.184C2 23.8048 2.86059 24.4257 4.33589 25.1086ZM31.1372 25.9157L22.101 22.1286L35.0714 20.1419L31.1372 25.9157ZM50.7464 16.9136L43.0626 19.9557L42.2634 20.2661L34.6411 17.224L43.124 13.8094L50.7464 16.9136ZM28.3096 11.3261L27.0801 8.96693L30.9528 10.519L34.6411 9.27734L33.6575 11.6986L37.4072 13.1265L32.551 13.6232L31.4446 16.2307L29.7234 13.3748L24.1295 12.8782L28.3096 11.3261ZM18.6586 14.6165C22.4698 14.6165 25.6048 15.8582 25.6048 17.3482C25.6048 18.8382 22.5313 20.0798 18.6586 20.0798C14.8474 20.0798 11.7124 18.8382 11.7124 17.3482C11.7124 15.8582 14.8474 14.6165 18.6586 14.6165ZM4.33589 34.7936C7.2865 36.2215 23.7607 42.9265 26.3425 44.1681C28.9243 45.4098 30.7684 45.4098 34.0878 43.7336C37.3458 41.9952 52.8364 35.6006 55.787 34.0486C57.3238 33.2415 58 32.6206 58 32.0619V26.4123C58 26.9711 57.2624 27.5298 55.8485 28.3369C52.8979 29.889 37.4072 36.3456 34.1493 38.0219C30.8913 39.7602 29.0472 39.7602 26.4654 38.4565C23.8836 37.2148 7.34797 30.5098 4.39737 29.0819C2.92206 28.399 2.06147 27.7782 2.06147 27.2194V32.9311C2 33.4898 2.86059 34.0486 4.33589 34.7936ZM4.33589 44.106C7.2865 45.534 23.7607 52.239 26.3425 53.4806C28.9243 54.7223 30.7684 54.7223 34.0878 53.046C37.3458 51.3077 52.8364 44.9131 55.787 43.361C57.3238 42.554 58 41.9331 58 41.3744V35.7248C58 36.2836 57.2624 36.8423 55.8485 37.6494C52.8979 39.2015 37.4072 45.6581 34.1493 47.3344C30.8913 49.0727 29.0472 49.0727 26.4654 47.769C23.8836 46.5273 7.34797 39.8223 4.39737 38.3944C2.92206 37.7115 2.06147 37.0906 2.06147 36.5319V42.2436C2 42.7402 2.86059 43.361 4.33589 44.106Z" fill="white"/>
</svg>
