<svg width="60" height="60" viewBox="0 0 60 60" fill="none" xmlns="http://www.w3.org/2000/svg">
<path fill-rule="evenodd" clip-rule="evenodd" d="M13.4188 10.7877C12.6912 11.4683 12.5715 11.9464 12.5715 12.1983C12.5715 12.4502 12.6912 12.9283 13.4188 13.6089C14.1502 14.293 15.3326 15.0143 16.9845 15.6679C20.2749 16.9696 24.9767 17.8251 30.2859 17.8251C35.5951 17.8251 40.2969 16.9696 43.5873 15.6679C45.2392 15.0143 46.4216 14.293 47.1529 13.6089C47.8806 12.9283 48.0003 12.4502 48.0003 12.1983C48.0003 11.9464 47.8806 11.4683 47.1529 10.7877C46.4216 10.1036 45.2392 9.38224 43.5873 8.72871C40.2969 7.42695 35.5951 6.57147 30.2859 6.57147C24.9767 6.57147 20.2749 7.42695 16.9845 8.72871C15.3326 9.38224 14.1502 10.1036 13.4188 10.7877ZM15.3028 4.47782C19.251 2.9158 24.5493 2 30.2859 2C36.0225 2 41.3208 2.9158 45.269 4.47782C47.2364 5.25618 48.983 6.23988 50.2758 7.44905C51.5723 8.66176 52.5718 10.2652 52.5718 12.1983C52.5718 14.1314 51.5723 15.7348 50.2758 16.9475C48.983 18.1567 47.2364 19.1404 45.269 19.9187C41.3208 21.4808 36.0225 22.3966 30.2859 22.3966C24.5493 22.3966 19.251 21.4808 15.3028 19.9187C13.3353 19.1404 11.5888 18.1567 10.296 16.9475C8.99953 15.7348 8 14.1314 8 12.1983C8 10.2652 8.99953 8.66176 10.296 7.44905C11.5888 6.23988 13.3353 5.25618 15.3028 4.47782Z" fill="white"/>
<path fill-rule="evenodd" clip-rule="evenodd" d="M10.2857 9.91301C11.5481 9.91301 12.5715 10.9359 12.5715 12.1983V24.0676C12.5715 24.3196 12.6913 24.7978 13.4188 25.4784C14.1502 26.1625 15.3325 26.8838 16.9844 27.5373C20.2747 28.839 24.9766 29.6944 30.2859 29.6944C35.5952 29.6944 40.297 28.839 43.5874 27.5373C45.2392 26.8838 46.4216 26.1625 47.1529 25.4784C47.8805 24.7978 48.0003 24.3196 48.0003 24.0676V12.1983C48.0003 10.9359 49.0237 9.91301 50.2861 9.91301C51.5484 9.91301 52.5718 10.9359 52.5718 12.1983V24.0676C52.5718 26.0007 51.5723 27.6042 50.2758 28.8169C48.9831 30.0262 47.2365 31.0098 45.2691 31.7882C41.3208 33.3502 36.0226 34.2659 30.2859 34.2659C24.5492 34.2659 19.2509 33.3502 15.3027 31.7882C13.3353 31.0098 11.5887 30.0262 10.296 28.8169C8.99944 27.6042 8 26.0007 8 24.0676V12.1983C8 10.9359 9.02336 9.91301 10.2857 9.91301Z" fill="white"/>
<path fill-rule="evenodd" clip-rule="evenodd" d="M10.2857 21.7818C11.5481 21.7818 12.5715 22.8052 12.5715 24.0676V35.9364C12.5715 36.1885 12.6913 36.6666 13.4188 37.3472C14.1502 38.0313 15.3325 38.7526 16.9844 39.4061C20.2747 40.7078 24.9766 41.5632 30.2859 41.5632C35.5952 41.5632 40.297 40.7078 43.5874 39.4061C45.2392 38.7526 46.4216 38.0313 47.1529 37.3472C47.8805 36.6666 48.0003 36.1885 48.0003 35.9364V24.0676C48.0003 22.8052 49.0237 21.7818 50.2861 21.7818C51.5484 21.7818 52.5718 22.8052 52.5718 24.0676V35.9364C52.5718 37.8695 51.5723 39.473 50.2758 40.6857C48.9831 41.895 47.2365 42.8787 45.2691 43.657C41.3208 45.219 36.0226 46.1347 30.2859 46.1347C24.5492 46.1347 19.2509 45.219 15.3027 43.657C13.3353 42.8787 11.5887 41.895 10.296 40.6857C8.99944 39.473 8 37.8695 8 35.9364V24.0676C8 22.8052 9.02336 21.7818 10.2857 21.7818Z" fill="white"/>
<path fill-rule="evenodd" clip-rule="evenodd" d="M10.2857 33.6472C11.5481 33.6472 12.5715 34.6705 12.5715 35.9329V47.8017C12.5715 48.0538 12.6913 48.532 13.4188 49.2125C14.1502 49.8966 15.3325 50.6179 16.9844 51.2714C20.2747 52.5731 24.9766 53.4285 30.2859 53.4285C35.5952 53.4285 40.297 52.5731 43.5874 51.2714C45.2392 50.6179 46.4216 49.8966 47.1529 49.2125C47.8805 48.532 48.0003 48.0538 48.0003 47.8017V35.9329C48.0003 34.6705 49.0237 33.6472 50.2861 33.6472C51.5484 33.6472 52.5718 34.6705 52.5718 35.9329V47.8017C52.5718 49.7348 51.5723 51.3383 50.2758 52.5511C48.9831 53.7603 47.2365 54.744 45.2691 55.5223C41.3208 57.0843 36.0226 58 30.2859 58C24.5492 58 19.2509 57.0843 15.3027 55.5223C13.3353 54.744 11.5887 53.7603 10.296 52.5511C8.99944 51.3383 8 49.7348 8 47.8017V35.9329C8 34.6705 9.02336 33.6472 10.2857 33.6472Z" fill="white"/>
</svg>
