<svg width="60" height="60" viewBox="0 0 60 60" fill="none" xmlns="http://www.w3.org/2000/svg">
<path d="M13.6668 2C7.23728 2 2 7.23728 2 13.6668C2 19.2973 6.01637 24.014 11.3337 25.0986V41.6668C11.3337 46.8162 15.5683 51.0005 20.6663 51.0005H20.7513C21.3212 54.9477 24.7331 58.001 28.8334 58.001C33.3299 58.001 36.9995 54.3313 36.9995 49.8349C36.9995 45.3385 33.3299 41.6678 28.8334 41.6678C24.7331 41.6678 21.3212 44.7201 20.7513 48.6683H20.6663C16.8436 48.6683 13.6658 45.539 13.6658 41.6678V29.9042C15.191 31.4609 17.2792 32.3361 19.4583 32.3342H20.7513C21.3212 36.2814 24.7331 39.3346 28.8334 39.3346C32.9337 39.3346 36.3446 36.2824 36.9146 32.3342H41.7518C42.3217 36.2814 45.7336 39.3346 49.8339 39.3346C54.3303 39.3346 58 35.664 58 31.1676C58 26.6711 54.3303 23.0015 49.8339 23.0015C45.7336 23.0015 42.3217 26.0538 41.7518 30.002H36.9146C36.3456 26.0548 32.9337 23.0015 28.8334 23.0015C24.7331 23.0015 21.3212 26.0538 20.7513 30.002H19.4583C16.644 30.002 14.299 27.9938 13.7755 25.3327C20.1547 25.2734 25.3327 20.0608 25.3327 13.6678C25.3327 7.27482 20.0964 2 13.6668 2ZM13.6668 4.33416C18.8113 4.32428 22.9906 8.48684 23.0005 13.6313C23.0005 13.6431 23.0005 13.655 23.0005 13.6668C23.0104 18.8122 18.8468 22.9906 13.7014 23.0005C13.6896 23.0005 13.6777 23.0005 13.6668 23.0005C8.5224 23.0104 4.34403 18.8478 4.33416 13.7024C4.33416 13.6905 4.33416 13.6787 4.33416 13.6668C4.32428 8.5224 8.48585 4.34403 13.6303 4.33416C13.6421 4.33416 13.655 4.33416 13.6668 4.33416ZM11.385 7.63339C10.1681 7.63931 9.00049 8.61723 9.00049 9.94779V17.4046C9.00049 19.1738 11.061 20.3196 12.5645 19.3881L18.5297 15.6888C19.9551 14.8048 19.962 12.6257 18.5436 11.7317L12.5783 7.97319C12.2217 7.74797 11.8078 7.62944 11.386 7.63339H11.385ZM11.3337 9.94779L17.299 13.7054L11.3337 17.4046V9.94779ZM28.8344 25.3337C32.0457 25.3238 34.6574 27.9187 34.6673 31.13C34.6673 31.1419 34.6673 31.1547 34.6673 31.1666C34.6772 34.3789 32.0813 36.9906 28.87 37.0005C28.8581 37.0005 28.8463 37.0005 28.8354 37.0005C25.6231 37.0104 23.0114 34.4144 23.0015 31.2021C23.0015 31.1903 23.0015 31.1784 23.0015 31.1676C22.9916 27.9553 25.5885 25.3445 28.7998 25.3347C28.8117 25.3347 28.8235 25.3347 28.8344 25.3347V25.3337ZM49.8339 25.3337C53.0452 25.3238 55.657 27.9187 55.6668 31.13C55.6668 31.1419 55.6668 31.1547 55.6668 31.1666C55.6767 34.3789 53.0808 36.9906 49.8695 37.0005C49.8576 37.0005 49.8458 37.0005 49.8349 37.0005C46.6226 37.0104 44.0109 34.4144 44.001 31.2021C44.001 31.1903 44.001 31.1784 44.001 31.1676C43.9911 27.9553 46.588 25.3445 49.7993 25.3347C49.8112 25.3347 49.823 25.3347 49.8339 25.3347V25.3337ZM31.211 28.3751C30.9019 28.3751 30.6045 28.4976 30.3852 28.7159L27.6293 31.4698L26.7136 30.5581C26.2573 30.1037 25.5184 30.1047 25.064 30.5611C24.6096 31.0174 24.6106 31.7563 25.067 32.2117L26.8055 33.9443C27.2608 34.3986 27.9977 34.3977 28.4531 33.9443L32.0339 30.3684C32.4902 29.9131 32.4902 29.1742 32.0349 28.7178C31.8166 28.4995 31.5192 28.3771 31.211 28.3771V28.3751ZM52.2105 28.3751C51.9014 28.3751 51.604 28.4976 51.3848 28.7159L48.6288 31.4698L47.7131 30.5581C47.2568 30.1037 46.5179 30.1047 46.0635 30.5611C45.6091 31.0174 45.6101 31.7563 46.0665 32.2117L47.805 33.9443C48.2604 34.3986 48.9972 34.3977 49.4526 33.9443L53.0334 30.3684C53.4897 29.9131 53.4897 29.1742 53.0344 28.7178C52.8161 28.4995 52.5187 28.3771 52.2105 28.3771V28.3751ZM28.8344 44.001C32.0467 43.9911 34.6574 46.588 34.6673 49.7993C34.6673 49.8112 34.6673 49.823 34.6673 49.8339C34.6772 53.0452 32.0823 55.657 28.871 55.6668C28.8591 55.6668 28.8463 55.6668 28.8344 55.6668C25.6221 55.6767 23.0104 53.0808 23.0005 49.8695C23.0005 49.8576 23.0005 49.8458 23.0005 49.8349C22.9906 46.6226 25.5865 44.0109 28.7988 44.001C28.8107 44.001 28.8226 44.001 28.8334 44.001H28.8344ZM26.5002 48.0845C25.5411 48.0845 24.7499 48.8748 24.7499 49.8349C24.7499 50.795 25.5411 51.5853 26.5002 51.5853C27.4594 51.5853 28.2506 50.796 28.2506 49.8349C28.2506 48.8738 27.4604 48.0845 26.5002 48.0845ZM31.1666 48.0845C30.2074 48.0845 29.4162 48.8748 29.4162 49.8349C29.4162 50.795 30.2074 51.5853 31.1666 51.5853C32.1257 51.5853 32.917 50.796 32.917 49.8349C32.917 48.8738 32.1267 48.0845 31.1666 48.0845ZM26.5002 49.2511C26.8282 49.2511 27.084 49.507 27.084 49.8349C27.084 50.1628 26.8292 50.4177 26.5002 50.4177C26.1713 50.4177 25.9165 50.1638 25.9165 49.8349C25.9165 49.506 26.1723 49.2511 26.5002 49.2511ZM31.1666 49.2511C31.4945 49.2511 31.7504 49.507 31.7504 49.8349C31.7504 50.1628 31.4955 50.4177 31.1666 50.4177C30.8376 50.4177 30.5838 50.1638 30.5838 49.8349C30.5838 49.506 30.8386 49.2511 31.1666 49.2511Z" fill="white"/>
<path d="M49.8335 41.6669C45.7282 41.6669 42.3134 44.7261 41.7494 48.6802C41.7109 48.6763 41.6723 48.6753 41.6338 48.6753L40.4524 48.7148C39.8084 48.7355 39.3036 49.2749 39.3243 49.9179C39.3451 50.562 39.8844 51.0667 40.5285 51.046L41.7099 51.0075C41.7237 51.0075 41.7385 51.0055 41.7523 51.0045C42.3243 54.9497 45.7341 57.9991 49.8335 57.9991C54.3299 57.9991 57.9996 54.3294 57.9996 49.833C57.9996 45.3365 54.3299 41.6659 49.8335 41.6659V41.6669ZM49.8335 44.001C53.0458 43.9912 55.6565 46.5881 55.6664 49.7994C55.6664 49.8112 55.6664 49.8231 55.6664 49.834C55.6763 53.0453 53.0814 55.657 49.87 55.6669C49.8582 55.6669 49.8453 55.6669 49.8335 55.6669C46.6212 55.6768 44.0095 53.0808 43.9996 49.8695C43.9996 49.8577 43.9996 49.8458 43.9996 49.835C43.9897 46.6226 46.5856 44.0109 49.7979 44.001C49.8098 44.001 49.8216 44.001 49.8325 44.001H49.8335Z" fill="white"/>
</svg>
