<svg width="60" height="60" viewBox="0 0 60 60" fill="none" xmlns="http://www.w3.org/2000/svg">
<path d="M27.7899 4L17.7471 19.0577V28.6035H11.5923V19.0577L2 4H8.91839L15.0179 13.696L21.1668 4H27.7899Z" fill="white"/>
<path d="M38.1257 23.1895H26.9846L24.7186 28.6608H19.7847L30.2176 4.05725H35.2641L45.2732 28.6608H40.0015L38.1267 23.1895H38.1257ZM36.2746 18.2773L32.8589 9.24802L29.049 18.2773H36.2746Z" fill="white"/>
<path d="M11.5923 31.3634V55.477H16.7663V38.8438L22.1803 50.0235H26.2529L31.8526 38.4507V55.4721H36.8161V31.3634H30.039L24.0264 42.2685L18.2993 31.3634H11.5923Z" fill="white"/>
<path d="M58.0002 50.2368H45.2727V31.3574H40.002V55.3673H58.0002V50.2368Z" fill="white"/>
</svg>
