<svg width="60" height="60" viewBox="0 0 60 60" fill="none" xmlns="http://www.w3.org/2000/svg">
<path d="M5.00439 2.00987C5.00439 2.22696 4.99451 2.37497 5.00439 2.52299C5.37968 6.62797 5.75497 10.7329 6.12039 14.8478C6.63394 20.6698 7.13762 26.4917 7.65118 32.3038C8.23386 38.8362 8.82643 45.3588 9.38937 51.8913C9.42887 52.3649 9.59676 52.5721 10.0412 52.6905C16.3619 54.4273 22.6628 56.1739 28.9835 57.9007C29.4082 58.0191 29.9217 58.0388 30.3464 57.9204C36.6868 56.1837 43.0174 54.4174 49.3578 52.6708C49.8418 52.5327 50.0096 52.3156 50.0491 51.8222C50.2467 49.3553 50.4837 46.8785 50.701 44.4115C51.0664 40.3263 51.4219 36.241 51.7873 32.1558C52.212 27.3601 52.6466 22.5742 53.0712 17.7785C53.3873 14.2064 53.723 10.6441 54.0391 7.07201C54.1872 5.3945 54.3156 3.71699 54.4539 2H5.00439V2.00987ZM44.9136 16.2589C44.5877 19.8705 44.2618 23.4919 43.9359 27.1035C43.5606 31.2578 43.1853 35.4121 42.81 39.5566C42.7014 40.7506 42.5433 41.9446 42.5137 43.1484C42.494 43.7898 42.2174 43.9576 41.6841 44.1056C37.872 45.1319 34.0697 46.1877 30.2674 47.2337C30.0995 47.283 29.9415 47.3422 29.7736 47.3916C29.7143 47.362 29.6551 47.3422 29.5859 47.3126C25.517 46.2074 21.448 45.0924 17.3791 43.9675C17.2112 43.9181 16.9939 43.6517 16.9742 43.4642C16.6878 40.3855 16.431 37.3067 16.1545 34.1688H22.3665C22.4752 35.4023 22.5937 36.6555 22.6924 37.9185C22.7813 39.0829 22.7714 39.0829 23.8677 39.379C25.833 39.902 27.8082 40.4151 29.7736 40.9282L29.7538 40.8789C31.9068 40.3065 34.0598 39.7441 36.2128 39.1323C36.4103 39.0731 36.6374 38.7573 36.6671 38.5402C36.7955 37.5929 36.8646 36.6357 36.9436 35.6884C37.072 34.1589 37.2004 32.6294 37.3386 31.0309H29.7538L29.7736 30.9914C29.7242 30.9914 29.6649 30.9914 29.6156 30.9914H15.8681C15.6804 28.9488 15.5027 26.9259 15.315 24.8438H29.6254C29.6748 24.8438 29.7341 24.8438 29.7835 24.8438L29.7637 24.8043H37.8917C38.0793 22.6828 38.267 20.6105 38.4546 18.4988H29.7538L29.7736 18.4594C29.7242 18.4594 29.6649 18.4594 29.6156 18.4594C24.7467 18.4692 19.8778 18.4692 15.0088 18.4791C14.9397 18.4791 14.8706 18.4495 14.7422 18.41C14.5644 16.397 14.3768 14.384 14.199 12.3118H29.6156C29.6649 12.3118 29.7242 12.3118 29.7736 12.3118L29.7538 12.2723H45.2395C45.1309 13.6538 45.0222 14.9563 44.9136 16.2589Z" fill="white"/>
</svg>
